<?xml version="1.0" standalone="no"?>
<!DOCTYPE svg PUBLIC "-//W3C//DTD SVG 20010904//EN"
 "http://www.w3.org/TR/2001/REC-SVG-20010904/DTD/svg10.dtd">
<svg version="1.0" xmlns="http://www.w3.org/2000/svg"
 width="400.000000pt" height="400.000000pt" viewBox="0 0 400.000000 400.000000"
 preserveAspectRatio="xMidYMid meet">
<metadata>
Created by potrace 1.14, written by Peter Selinger 2001-2017
</metadata>
<g transform="translate(0.000000,400.000000) scale(0.100000,-0.100000)"
fill="#000000" stroke="none">
<path d="M1780 3675 c-488 -67 -915 -333 -1191 -744 -447 -664 -367 -1555 193
-2132 90 -93 209 -192 219 -182 15 15 58 161 69 231 l12 72 -92 97 c-189 200
-313 439 -367 710 -12 63 -17 136 -17 258 0 122 5 195 17 258 57 282 186 527
387 728 165 165 349 280 557 348 158 52 250 65 438 65 188 0 280 -13 438 -65
208 -68 392 -183 557 -348 201 -202 330 -444 387 -728 24 -122 24 -394 0 -516
-88 -439 -373 -812 -768 -1005 -204 -99 -374 -137 -619 -136 -172 0 -209 5
-396 51 -16 4 -31 -10 -71 -64 -28 -37 -76 -91 -106 -120 l-55 -52 55 -21
c318 -119 716 -130 1061 -30 547 160 992 605 1152 1152 105 362 89 760 -47
1103 -287 729 -1042 1175 -1813 1070z"/>
<path d="M1187 1933 c-3 -653 -8 -973 -16 -1028 -37 -248 -95 -385 -222 -519
-44 -46 -111 -106 -149 -132 -74 -50 -75 -51 -61 -72 6 -11 26 -6 95 22 209
87 393 193 505 293 175 154 290 387 323 651 l11 92 579 0 578 0 0 150 0 150
-350 0 c-192 0 -350 2 -350 4 0 3 158 238 350 522 l350 517 0 149 0 148 -819
0 -819 0 -5 -947z m1170 635 c-7 -17 -656 -979 -673 -998 -12 -12 -14 65 -14
498 l0 512 346 0 c273 0 345 -3 341 -12z"/>
</g>
</svg>
