<?xml version="1.0" encoding="UTF-8"?>
<svg id="Layer_1" data-name="Layer 1" xmlns="http://www.w3.org/2000/svg" viewBox="0 0 230 40.23126">
  <path d="m4.43808,21.75851v-7.21499h2.58121v7.21499c0,1.09694-.32989,1.95243-.98892,2.56647-.65903.61353-1.50181.92055-2.52835.92055-1.02628,0-1.86678-.30397-2.52072-.91293-.6542-.60896-.9813-1.46699-.9813-2.57409h2.56622c.00991.40258.10039.69995.27169.89056.17105.19163.39242.2872.66411.2872s.4956-.09556.67174-.2872c.17613-.19062.26432-.48798.26432-.89056Zm18.89855,3.3813l-.58863-1.78113h-3.80396l-.58863,1.78113h-2.74718l3.68298-10.62653h3.13985l3.66798,10.62653h-2.76242Zm-3.74347-3.74321h2.50573l-1.25274-3.77371-1.25299,3.77371Zm18.31018-4.96621c-.32227,0-.58634.08565-.79246.25644-.20637.1713-.30956.41783-.30956.73985s.09556.581.28694.77721c.19087.19621.43994.34718.74697.45291s.64912.20637,1.02654.30194c.37742.09582.75205.2112,1.12464.34718.37208.13597.71164.30448,1.01891.50577.30677.20129.55584.48544.74722.85244.19087.36751.28669.80771.28669,1.3211,0,.89565-.36497,1.66269-1.0944,2.30164-.72968.63946-1.69065.95868-2.88315.95868s-2.15347-.28669-2.88315-.86057c-.72968-.57338-1.09414-1.38871-1.09414-2.44498h2.74718c.07015.84532.50298,1.26773,1.29823,1.26773.37208,0,.66411-.0981.87531-.29431.21146-.19621.31719-.44528.31719-.74722s-.09582-.54847-.28694-.73959c-.19138-.19113-.4402-.34209-.74722-.45291-.30702-.1103-.64912-.21349-1.02628-.30956-.37742-.09531-.75256-.21324-1.12464-.35429-.37234-.1408-.71215-.30956-1.01891-.50577-.30702-.19621-.55609-.47781-.74722-.84532-.19138-.36726-.28669-.80237-.28669-1.3056,0-.98613.367-1.77604,1.10177-2.37001.73451-.59371,1.67286-.89056,2.81529-.89056,1.14192,0,2.06527.25924,2.7698.77746.70427.51822,1.07178,1.33585,1.10202,2.45286h-2.80766c-.04041-.38251-.16368-.67682-.3698-.88319-.20637-.20612-.4707-.30931-.79246-.30931Zm14.07594,7.27548c-1.0517-1.02628-1.57755-2.32451-1.57755-3.89418,0-1.56992.52585-2.86561,1.57755-3.88707,1.05144-1.0212,2.33976-1.53205,3.86419-1.53205,1.52468,0,2.80766.51085,3.8492,1.53205,1.04153,1.02145,1.5623,2.31714,1.5623,3.88707,0,1.56967-.52331,2.8679-1.56992,3.89418s-2.3296,1.53968-3.8492,1.53968-2.80512-.5134-3.85657-1.53968Zm5.88702-1.6754c.50806-.55355.76221-1.29315.76221-2.21878,0-.92589-.25416-1.66549-.76221-2.21904-.50831-.5533-1.18767-.83033-2.03783-.83033-.85066,0-1.52977.27703-2.03783.83033-.50831.55355-.76221,1.29315-.76221,2.21904,0,.92564.2539,1.66523.76221,2.21878.50806.55355,1.18716.83007,2.03783.83007.85015,0,1.52951-.27652,2.03783-.83007Zm18.89118-7.51718h2.58121v10.62653h-2.58121l-4.31735-6.68685v6.68685h-2.58121v-10.62653h2.58121l4.31735,6.68711v-6.68711Zm30.37066.03024v1.96234l-4.51331,6.67186h4.51331v1.96209h-7.48694v-1.96209l4.51331-6.67186h-4.51331v-1.96234h7.48694Zm9.78908,9.16233c-1.0517-1.02628-1.5778-2.32451-1.5778-3.89418,0-1.56992.5261-2.86561,1.5778-3.88707,1.05119-1.0212,2.33976-1.53205,3.86419-1.53205s2.80741.51085,3.84894,1.53205c1.04153,1.02145,1.56255,2.31714,1.56255,3.88707,0,1.56967-.52356,2.8679-1.57018,3.89418s-2.3296,1.53968-3.84894,1.53968c-1.51985,0-2.80538-.5134-3.85657-1.53968Zm5.88677-1.6754c.50831-.55355.76247-1.29315.76247-2.21878,0-.92589-.25416-1.66549-.76247-2.21904-.50831-.5533-1.18742-.83033-2.03783-.83033s-1.52951.27703-2.03783.83033c-.50831.55355-.76196,1.29315-.76196,2.21904,0,.92564.25365,1.66523.76196,2.21878s1.18742.83007,2.03783.83007,1.52951-.27652,2.03783-.83007Zm11.99262-7.48694h2.58121v8.6342h3.21559v1.96209h-5.7968v-10.59628Zm15.13297,9.15471c-1.0517-1.0212-1.57729-2.31689-1.57729-3.88656,0-1.56992.5256-2.86561,1.57729-3.88707,1.0517-1.0212,2.33722-1.53205,3.85657-1.53205,1.17776,0,2.22438.3121,3.13985.9358.91547.62421,1.55493,1.48961,1.91736,2.59646h-3.07936c-.40258-.77492-1.04712-1.16251-1.9321-1.16251-.88599,0-1.58289.27703-2.09069.83033-.50831.55355-.76247,1.29315-.76247,2.21904,0,.92564.25416,1.66523.76247,2.21878.5078.55355,1.18996.83007,2.04494.83007.61404,0,1.11473-.153,1.50206-.46053.38733-.30651.64657-.71672.77772-1.23012h-2.98888v-1.96209h5.7663v1.96209c-.19163.9663-.71977,1.86703-1.58492,2.70219-.41275.40258-.9236.72943-1.53256.98104s-1.25502.37717-1.93972.37717c-1.51935,0-2.80487-.51035-3.85657-1.53205Zm24.18958-9.15471h2.58121v10.59628h-2.58121v-4.39233h-4.0909v4.39233h-2.58121v-10.59628h2.58121v4.24161h4.0909v-4.24161Zm18.52139,10.59628l-.58863-1.78113h-3.80421l-.58863,1.78113h-2.74692l3.68272-10.62653h3.13985l3.66798,10.62653h-2.76217Zm-3.74372-3.74321h2.50598l-1.25299-3.77371-1.25299,3.77371Zm18.44615-6.85307c1.69065,0,3.07936.49052,4.16613,1.47182,1.08677.98104,1.63016,2.25411,1.63016,3.81895s-.54339,2.8402-1.63016,3.82632-2.47548,1.47919-4.16613,1.47919h-3.72847v-10.59628h3.72847Zm-1.14726,8.6342h1.14726c.98613,0,1.76079-.30194,2.32451-.90581s.84532-1.41362.84532-2.43024c0-1.01612-.28161-1.82637-.84532-2.43024-.56372-.60362-1.33839-.90556-2.32451-.90556h-1.14726v6.67186Zm18.09847-2.1588v4.12089h-2.58121v-10.59628h4.18138c1.22757,0,2.18371.31693,2.8679.95105.68419.63387,1.02679,1.39862,1.02679,2.29427,0,.61404-.18655,1.21283-.55864,1.79638-.37259.5838-.98104.99629-1.82637,1.23749l2.59595,4.3171h-3.01887l-2.385-4.12089h-.30194Zm0-4.51305v2.55097h1.60017c.39242,0,.70198-.11564.92818-.34718.22671-.23128.33955-.53576.33955-.91318s-.11539-.68698-.34718-.92843c-.23128-.24145-.5383-.36217-.92055-.36217h-1.60017Zm-112.2689-6.31979l7.46247-10.18608h-2.27724l-7.46247,10.18608h2.27724Zm-16.82632,19.85914l-7.46244,10.18604h2.27724l7.46244-10.18604h-2.27724Z" fill="#fff"/>
</svg>