<?xml version="1.0" encoding="utf-8"?>
<!-- Generator: Adobe Illustrator 27.5.0, SVG Export Plug-In . SVG Version: 6.00 Build 0)  -->
<svg version="1.1" id="Layer_3" xmlns="http://www.w3.org/2000/svg" xmlns:xlink="http://www.w3.org/1999/xlink" x="0px" y="0px"
	 width="83.9px" height="1203px" viewBox="0 0 83.9 1203" style="enable-background:new 0 0 83.9 1203;" xml:space="preserve">
<style type="text/css">
	.st0{fill:#898989;}
</style>
<path class="st0" d="M46.7,216.9c-0.1,0.3-0.2,0.7-0.3,1c0,0,0,0,0,0c0,0,0,0,0,0c-0.4,0-0.8-0.1-0.8-0.4c0-0.1,0.1-0.3,0.4-0.6
	C46.2,216.9,46.4,216.9,46.7,216.9z M41.3,1201.9c-0.4,0.7,0.2,1.1,0.7,1.1v0c0.5,0,1-0.5,0.5-1.2
	C42.1,1201.9,41.7,1201.9,41.3,1201.9z M30.9,436.9c-0.3,0-0.5,0.2-0.3,0.5C30.7,437.2,30.8,437,30.9,436.9z M35.3,191.8
	c-0.8,0-1.1,0.3-0.8,1.1C35.2,192.8,35.3,192.4,35.3,191.8z M14.4,228.7c0-0.2,0.1-0.5,0.1-0.7c-0.2,0.1-0.7,0.2-0.7,0.4
	C13.8,228.8,14,228.9,14.4,228.7z M48.4,419.9c0.1,0.9,0.2,1.8,0.4,2.7c0.2,0.9,0.6,1.8,1,2.7c0.4-3.6,0-7.1-0.4-10.7
	c0.6-0.3,0.5-0.8,0.3-1.2c-0.1-0.4-0.5-0.3-0.7,0c-0.1,0.3-0.1,0.7-0.2,1C48.4,416.2,48.3,418.1,48.4,419.9z M33.8,194.5
	c-2.1,2.2-2.7,5-3.5,7.9C32.9,200.3,33.3,197.3,33.8,194.5z M21.9,940.3c-0.7,0-1.1,0.4-1.2,1.1c-0.2,2.7-1.1,5.3-1.7,8
	c-0.5,2.4-1.6,4.9-0.9,7.5C19.9,951.4,20.8,945.8,21.9,940.3z M32.4,544.7c-2.9-2.5-5.9-4.7-8.1-7.9c-0.3-0.4-0.7-0.4-1.1-0.3l0,0
	c-0.3,0.8,0,1.5,0.3,2.2c1.4,0.3,2.1,1.6,3.1,2.4c2.4,2.2,4.6,4.5,7.4,6.2C34.1,546,33.2,545.3,32.4,544.7z M39.7,373.3L39.7,373.3
	C39.7,373.3,39.7,373.3,39.7,373.3C39.7,373.3,39.7,373.3,39.7,373.3z M78.8,619.6c-3.3,2.7-6.7,5.4-10.5,7.4
	c-2.8,1.4-5.1,3.7-8.2,4.3c0.6-1.3,0.8-2.6,0.8-4c0,1.4-0.2,2.7-0.8,4c-0.1,0.6-0.3,1.1-1,1.2c0,0,0,0-0.1,0c0,0,0,0,0.1,0
	c-0.7,6-2.4,11.7-3.8,17.5c-1.8,7.5-4.4,14.7-6.3,22.1c-0.2,0.8-0.2,1.6-0.3,2.4c0.2,0.4,0.3,0.8,0.5,1.1c-0.4,1-0.7,2.1-0.9,3.1
	c0.2-1.1,0.5-2.1,0.9-3.1c4.7,4.4,9.6,8.7,13.5,14c6.2,8.6,7.9,18.4,8.3,28.6c0.3,10.2-2.2,19.9-4.6,29.6
	c-1.9,7.7-4.3,15.3-7.1,22.7c-1.7,4.5-3.3,9.2-5.5,13.5c-0.8,1.6-0.5,3.9-2.6,4.8c0,1.6,0.3,3.3-0.6,4.8c0,0.7,0.1,1.3,0.1,2h0
	c0.3,0.1,0.5,0.3,0.8,0.4c0,0,0,0,0,0c0,0,0,0,0,0c0.5,2.4,1.7,4.6,1.2,7.1c-0.5-0.8-0.9-2.4-1.1-3.9c0.2,1.6,0.6,3.1,1.1,3.9
	c0.9,1,1,2.3,1.1,3.5c0.6,11.9,0.5,23.8-0.1,35.7c-0.7,12.2-2.9,24.3-3.7,36.5c-0.4,5.7-0.9,11.4-1.4,17.1c0.3,0.5,0.3,1.1,0.2,1.6
	c-0.1,1.1-0.1,2.2-0.2,3.3c0.1-1.1,0.1-2.2,0.2-3.3c1.5,2.4,2,5.2,2.8,7.8c4.4,13.5,9.3,26.8,12.4,40.7c1.7,7.7,2.8,15.5,4.2,23.3
	c0.8,4.4,1.4,8.8,2.2,13.2c1.2,6.6,0.3,12.9-2.8,18.8c-1.8,3.5-4.3,6.7-6.8,9.7c-2.6,3.1-4.5,6.7-6.5,10.1
	c-2.7,4.7-5.1,9.5-6.3,14.8c-0.8,3.5-1.7,7-2.5,10.5c-0.1,0.4-0.1,0.8-0.6,0.9c0,0.5-0.1,0.9-0.5,1.3c0.6,0.9,0.4,1.8,0.1,2.7
	c-0.4,0.5-0.5,1-0.6,1.5c0.1-0.5,0.2-1,0.6-1.5c0.3,1.4,0.7,2.8-0.3,4.1c-0.1,3.5-0.3,7-0.3,10.5c-0.1,10.8-0.2,21.6-0.4,32.4
	c0,1,0.2,2-0.4,2.9c-0.3-0.1-0.5-0.1-0.8-0.2c0.1-1.3,0.2-2.6,0.2-3.9c0,1.3-0.1,2.6-0.2,3.9c-0.1,0.9-0.2,1.8-0.2,2.8
	c0-0.9,0.1-1.8,0.2-2.8c0.3,0.1,0.5,0.1,0.8,0.2c0.4,5.7-0.1,11.3-0.1,17c0,26.8,0,53.6-0.1,80.5c0,1,0.3,2-0.4,2.9
	c-0.4,0-0.8,0-1.2,0.1c-0.5-0.8-0.3-1.8-0.3-2.7c-0.1-27.8,0.2-55.5-0.2-83.3c0-3.1-0.6-6.3,0.1-9.4h0c-0.1-1.4-0.2-2.8-0.3-4.3
	c0.2-0.2,0.4-0.4,0.4-0.6c0,0.2-0.2,0.4-0.4,0.6c-0.6-0.4-0.7-0.8,0-1.2c-0.2-5.7-0.5-11.4-0.2-17.1c0.4-0.6,0.6-1.2,0.8-1.8
	c-0.1,0.6-0.4,1.2-0.8,1.8c-0.6-1.6-0.5-3.1-0.1-4.7c-0.4-8.9,0.1-17.8-0.6-26.6c0,0,0,0,0,0c-1.8-1-0.7-2.8-1-4.2
	c-1.1-3.8-0.8-8-2.9-11.6c-0.5-0.8-0.4-1.9-0.2-2.9c-1.6-3.8-3.1-7.6-4.7-11.4c-3.5-4-5.8-8.7-9.2-12.8c-2.3-2.9-4.3-6-6-9.3
	c-0.4-0.9-1-1.7-0.9-2.8h0c-0.1-0.1-0.2-0.3-0.2-0.4c-1.1-0.6-0.9-1.7-1.1-2.6c-1-4.5-0.5-9-0.3-13.5v0c0-0.2,0.4-0.5,0.6-0.7
	c0.2-1,0.3-1.9,0.5-2.9c0.2-0.1,0.4-0.2,0.5-0.3c-0.1,0.1-0.3,0.2-0.5,0.3c-0.5-0.7-0.3-1.3,0.4-1.7c0-0.3,0.1-0.6,0.1-0.8
	c0.4-0.1,0.6-0.3,0.6-0.6c0,0.3-0.2,0.5-0.6,0.6c-0.6-0.7-0.1-0.9,0.5-1c0-0.8,0.1-1.7,0.1-2.5c0.6-0.2,0.8-0.5,1-0.8
	c-0.1,0.3-0.4,0.6-1,0.8c-0.6-1.1-0.2-2,0.4-2.9c0.1-0.7,0.2-1.3,0.3-2c0.3-0.1,0.5-0.3,0.6-0.5c-0.1,0.2-0.3,0.4-0.6,0.5
	c-0.5-0.7-0.4-1.3,0.4-1.7c1-2.5,0.6-5.3,1.4-7.9c1.8-5.4,2.7-10.9,3.8-16.5c0-0.3,0-0.7,0.1-1c1-0.8,1.8-2.4,1.9-3.9
	c-0.2,1.5-0.9,3.1-1.9,3.9c0.2-2.1,0.5-4.2,1.7-6c0.1-0.4,0.2-0.7,0.2-1.1c0.5-0.3,0.9-0.7,1.2-1.3c-0.3,0.5-0.7,1-1.2,1.3
	c0.3-2.1,0.5-4.2,1.8-6c-0.1-0.8,0.4-1.4,0.8-2c3.1-4,3.7-9.1,5.3-13.7c0.3-0.8,0.6-1.7,0.9-2.5c-0.3,0.8-0.6,1.7-0.9,2.5
	c-1.6,4.6-2.2,9.7-5.3,13.7c1.8-7.5,4.1-14.9,6.9-22.1c0.4-1,0.1-2.4,1.5-2.9c0.1,0.3,0.2,0.6,0.3,0.9c-0.1-0.3-0.2-0.6-0.3-0.9
	c0.2-1,0.4-2.1,0.6-3.1c-0.2-1.2-0.3-2.5-0.5-3.7c0.2-0.1,0.2-0.1,0.2-0.2c0,0.1-0.1,0.1-0.2,0.2c-0.3-0.1-0.3-0.2-0.1-0.3
	c-0.2-3.9-1.4-7.8-1.3-11.6c0.3-7.5-1.8-14.7-1.8-22.2c0-6-1.3-12-1.7-18c-0.6-7.3-1-14.7-0.7-22c0.3-7.3,1.1-14.6,2.6-21.8
	c0.1-0.6,0.4-1.1,1.1-1.3c1-0.1,1,0.8,1.1,1.3c0.5,3.1,1.4,6.2,1.3,9.3c-0.3,7.3,1.3,14.3,2.2,21.5c0.3,1.9,0.4,3.9,0.5,5.8
	c-0.1-1.9-0.2-3.9-0.5-5.8c-0.9-7.1-2.5-14.2-2.2-21.5c0.1-3.2-0.8-6.2-1.3-9.3l0,0c-0.1-0.6-0.1-1.4-1.1-1.3c0-1.3,0-2.7-0.1-4h0
	c-1.2-1.4-1.7-3-2.3-4.7c-2-5.6-4-11.1-6-16.7c0.1-0.1,0.1-0.3,0.1-0.4c0,0.1-0.1,0.2-0.1,0.4c-0.6-0.2-0.9-0.5-0.5-1.2
	c-0.4-0.7-0.5-1.5-0.6-2.3c0.1-0.2,0.2-0.4,0.2-0.5c0,0.2-0.1,0.3-0.2,0.5c-0.6-0.2-0.9-0.6-0.4-1.2c-2.1-4.3-3.1-8.9-4.5-13.4
	c0.1-0.1,0.1-0.2,0.1-0.3c0,0.1,0,0.2-0.1,0.3c-0.6-0.2-0.9-0.5-0.4-1.1c-0.6-0.7-0.6-1.5-0.6-2.4c0.1-0.1,0.1-0.2,0.1-0.3
	c0,0.1,0,0.2-0.1,0.3c-0.6-0.2-0.9-0.5-0.4-1.1c-0.7-0.9-0.5-1.9-0.6-2.9c0.1-0.2,0.1-0.4,0.1-0.5c0,0.2,0,0.3-0.1,0.5
	c-0.6-0.2-1-0.4-0.2-1c-0.1-0.3-0.2-0.7-0.3-1c0.1-0.2,0.2-0.4,0.1-0.5c0,0.2,0,0.3-0.1,0.5c-0.7-0.2-0.7-0.5-0.2-1
	c-0.2-1-0.5-2-0.7-3c0.1-0.2,0.2-0.4,0.1-0.5c0,0.2,0,0.4-0.1,0.5c-0.6-0.2-0.9-0.5-0.2-1c-0.1-0.7-0.2-1.4-0.2-2.1
	c0.1-0.2,0.1-0.4,0.1-0.5c0,0.2,0,0.3-0.1,0.5c-0.4,0-0.5-0.2-0.6-0.5v0c0-0.2,0.1-0.4,0.4-0.4c-1.8-7.3-2.1-14.6-1.2-22
	c0.3-0.2,0.5-0.4,0.5-0.6c0,0.2-0.2,0.4-0.5,0.6c-0.6-0.6-0.3-0.9,0.2-1.3c0.1-0.9,0.2-1.9,0.3-2.8c1.5,0,1.1-1.3,1.3-2
	c1.4-6.9,4.2-13.1,8.8-18.4c0.5-0.5,1-1.1,1.2-1.9c-0.2,0.8-0.8,1.3-1.2,1.9c-4.6,5.4-7.3,11.6-8.8,18.4c-0.1,0.7,0.2,2-1.3,2
	c0.3-5.8,2.6-10.9,5.3-15.8c1.2-2.2,2.9-4.2,4.4-6.3c0.4-0.5,0.7-1.1,1.6-1c0,0,0,0,0,0c0.4-0.3,0.7-0.7,1.1-1
	c1.1,0.1,1.5-0.8,2.1-1.5c0.2-0.3,0.5-0.6,0.7-0.8c-0.2,0.3-0.5,0.5-0.7,0.8c-0.6,0.7-1,1.5-2.1,1.5c0.1-1.5,1.1-2.3,2.1-3.1v0
	c2.1-1.9,3.8-4.3,6.3-5.7c0.1-0.4,0.2-0.8,0.3-1.2c-0.1-5-2.3-9.4-3.7-14c-1.5-5.2-2.9-10.3-4.3-15.6c-1-3.9-1.7-7.9-2.5-11.9
	c0.2,0,0.4,0,0.6,0c5.1,3.2,9.8,6.8,13.5,11.5c0.2,0.2,0.3,0.5,0.5,0.7c-0.2-0.2-0.3-0.5-0.5-0.7c-3.7-4.7-8.5-8.3-13.5-11.5v0h0
	c-0.1-0.4-0.3-0.7-0.4-1.1c0,0,0,0,0,0c0.1,0.4,0.3,0.7,0.4,1.1c-0.2,0-0.4,0-0.6,0c-2.5-2.5-6-3.6-8.7-5.7
	c-0.2-0.2-0.4-0.5-0.6-0.7c0,0,0,0,0,0c-0.2,0-0.3-0.1-0.3-0.2c0,0,0,0,0,0c-1.5-0.2-2.6-1.1-3.6-2.3c0,0,0,0,0,0
	c-0.2,0-0.3-0.1-0.4-0.3c0,0,0-0.1,0-0.2c0,0.1,0,0.1,0,0.2v0c-0.4,0.1-0.7,0-0.8-0.4v0c-0.7-0.1-1.3-0.4-1.7-1c0,0,0,0,0,0
	c-1.1-0.2-1.7-0.9-2.1-1.7c0,0,0,0,0,0c-0.2,0-0.3-0.1-0.3-0.3c0,0,0,0,0,0c-3.3-1.8-5.6-4.4-5.8-8.3c-0.1-3.7,2.3-5.9,5.1-7.9
	c3.4-2.5,6.8-4.8,10.3-7c2.2-1.3,4.4-2.8,6.9-3.4c0.1-0.1,0.3-0.3,0.4-0.4c-0.3-0.6-0.2-0.9,0.6-0.9c0,0,0,0,0,0c0,0,0,0,0,0
	c0,0.3,0.1,0.6,0.1,0.9c0,0.1,0,0.2,0,0.3c0,0.3-0.2,0.5-0.5,0.6c0,0,0,0,0,0c-0.1,0.3-0.2,0.6-0.3,0.8c0,0,0,0,0,0
	c1.3,2.4,1.1,4.9,0.3,7.3c0,0.1-0.1,0.2-0.1,0.3c-0.6-1.6-0.4-3.3-0.3-4.9c-0.1,1.6-0.3,3.3,0.3,4.9c0,0.2,0,0.4,0,0.6
	c0,0.3,0,0.6,0,0.9c0,0,0,0,0,0c0,0,0,0,0,0c0,0,0,0,0,0c0,0,0,0,0,0c0.2,4.5,0.5,9.1,0.6,13.6c0,0.5,0,1.1,0.1,1.6
	c0-0.5-0.1-1.1-0.1-1.6c-0.1-4.5-0.4-9.1-0.6-13.6c0-0.3,0-0.6,0-0.9c0-0.2,0-0.4,0-0.6c0-0.1,0.1-0.2,0.1-0.3
	c0.8-2.5,1-4.9-0.3-7.3c0,0,0,0,0,0c0,0,0,0,0,0v0c0.1-0.3,0.2-0.6,0.3-0.8c0,0,0,0,0,0c0.3-0.1,0.5-0.4,0.5-0.6c0-0.1,0-0.2,0-0.3
	c0-0.3-0.1-0.6-0.1-0.9c0.1-0.1,0.2-0.2,0.3-0.2c0.3-6.6,0.7-13.2,0.8-19.8c0.1-7.5,0.2-14.9-0.2-22.4c-0.2-3.1-0.9-6.2-1-9.3
	c0-0.6-0.2-1.2,0.3-1.7c1.4,0.3,2.1,1.6,3.1,2.4c2.4,2.2,4.6,4.5,7.4,6.2v0c2.5,2.7,4,6.1,5.8,9.3c0.5,0.8,0.8,1.7,1,2.6
	c-0.2-0.9-0.6-1.8-1-2.6c-1.8-3.2-3.3-6.5-5.8-9.3l0,0c0,0,0,0,0,0h0c0.2-1.3-0.7-2-1.5-2.7v0c-2.9-2.5-5.9-4.7-8.1-7.9
	c-0.3-0.4-0.7-0.4-1.1-0.3c0,0,0,0,0,0c-0.2-0.2-0.3-0.5-0.5-0.7c0.1-0.2,0.2-0.4,0.2-0.6c0-0.5-0.2-1-0.3-1.5c0-0.1,0-0.2,0-0.3
	c0.6-0.2,0.8-0.6,0.9-1c0-0.1,0-0.3,0-0.5c0-0.2,0-0.4,0-0.6c0,0,0,0,0,0c0,0.2,0,0.4,0,0.6c0,0.2,0,0.3,0,0.5c0,0.4-0.2,0.8-0.9,1
	c0,0.1,0,0.2,0,0.3c0,0.5,0.3,1,0.3,1.5c0,0.2-0.1,0.4-0.2,0.6v0c-2.4-3-4.8-6-5.7-9.8l0,0c-1.6-3.8-2.9-7.7-2.6-12
	c0-0.2,0-0.4,0.1-0.6c0,0.2-0.1,0.4-0.1,0.6c-1.7-0.6-0.8-1.9-1-3c-0.6-3.9-0.6-7.7,0-11.6c-0.4-1.9-0.8-3.8,0.5-5.6
	c0.1-0.4,0.1-0.7,0.2-1.1c-0.4-1.8-0.1-3.4,0.8-5c0.1,0.2,0.1,0.4,0.1,0.7c0-0.2-0.1-0.4-0.1-0.7c0.1-0.5,0.2-1,0.3-1.6
	c-0.6-0.7-0.8-1.4,0.3-1.9c0.2-0.7,0.5-1.4,0.7-2c-0.5-0.4-0.4-0.7,0.1-0.9c0.4-1.7,0.8-3.3,1.3-5c-0.5-0.6-0.2-0.9,0.4-1.2
	c0-0.7,0.1-1.3,0.5-1.8c0.2-0.1,0.4-0.2,0.5-0.3c-0.1,0.1-0.3,0.2-0.5,0.3c-0.4-0.6-0.1-0.9,0.5-1.2c0.1-0.8,0.1-1.6,0.7-2.3
	c0.2-0.1,0.3-0.2,0.4-0.3c-0.1,0.1-0.2,0.2-0.4,0.3c-0.5-0.7-0.4-1.2,0.4-1.6v0c0.2-0.5,0.4-0.9,0.6-1.4c-0.5-0.6-0.3-0.9,0.4-1.1
	c1.7-5.3,3.2-10.7,5.4-15.9c0.2-0.1,0.4-0.1,0.5-0.2c-0.1,0.1-0.3,0.2-0.5,0.2c-0.4-0.6-0.1-1,0.5-1.2c0.5-2.5,1.3-5,2.5-7.3
	c0.3-0.1,0.5-0.2,0.6-0.4c-0.1,0.2-0.3,0.3-0.6,0.4c-0.4-0.6-0.1-1,0.5-1.2c0-1,0.4-1.9,0.8-2.8c0.1-0.2,0.2-0.3,0.3-0.5
	c0-0.2,0.1-0.3,0.1-0.5c0.5,0,0.9,0,1.4,0c0.9,0.1,1.1,0.6,1.1,1.1c0-0.5-0.3-0.9-1.1-1.1c0-0.2,0-0.4-0.1-0.6
	c0.1,0.2,0,0.4,0.1,0.6c-0.5,0-0.9,0-1.4,0c-0.1-0.7,0.4-0.9,0.9-1c0.2-0.6,0.4-1.2,0.6-1.9c-0.3-1.2-0.3-2.3,1.3-2.7c0,0,0,0,0,0
	c0,0.4,0.1,0.7,0.1,1.1c0.4,0.4,0.5,0.8,0.5,1.3c0-0.5-0.1-0.9-0.5-1.3c0-0.4-0.1-0.7-0.1-1.1v0c0,0,0,0,0,0c0.1-1,0.2-2.1,0.3-3.1
	c-0.3-3,0-6.1,0.4-9.1c0.1,0,0.1-0.1,0.2-0.1c-0.1,0-0.1,0.1-0.2,0.1c-0.4-0.4-0.5-0.8,0.2-1.1c0.2-1.7,0.3-3.4,0.5-5.1
	c0-1.7-0.8-3.6,1-4.9c-0.4-2.8,0.1-5.6,0.7-8.3h0c0.9-3.7,0.9-7.6,1.4-11.3c0.4,1,0.6,2.1,0.8,3.2c-0.2-1.1-0.5-2.1-0.8-3.2
	c0,0,0,0,0,0c0,0,0,0,0,0c-0.4-1.2,0-2.5-0.1-3.7c0.1,0,0.1,0,0.2,0c-0.1,0-0.1,0-0.2,0c-0.2-0.3-0.5-0.5-0.5-0.8
	c-0.5-7.9-1.3-15.8,0.3-23.7c-0.1-0.5-0.3-1-0.4-1.5c0.2,0,0.5,0,0.7,0c-0.2,0-0.5,0-0.7,0c0.1-2.5-1.3-4.6-1.8-6.9
	c-2-8-4-16.1-5.2-24.3c-1-6.6-0.8-13.4-1.5-20h0c-1.3-4.4-3.3-8.7-4.2-13.2c0.1-0.2,0.1-0.4,0.1-0.6c0,0.2,0,0.4-0.1,0.6
	c-0.8-0.5-1.3-1-0.8-2l0,0c-0.1-0.3-0.2-0.7-0.2-1c0-0.6,0-1.2-0.1-1.8c-0.1-1.2-0.3-2.3-0.5-3.5c0.2,1.2,0.4,2.3,0.5,3.5
	c0.1,0.6,0.1,1.2,0.1,1.8c-1.4-1.5-1.3-3.5-1.8-5.2c-1.7-6.2-3-12.5-4.7-18.8v0c-0.7-2.4-0.5-5-0.8-7.6h0
	c-0.9-5.2-1.8-10.3-2.7-15.5c0,0,0,0,0,0c0,0,0,0,0,0c-1.3-1.4-0.9-3-0.5-4.5c-0.5-2.1-0.5-4.3,0-6.4c0.5-0.5,0.6-1,0.6-1.5
	c0,0.5-0.1,1-0.6,1.5c-0.5-1.1-0.8-2.2,0.4-3.1v0c0-0.5,0.2-0.9,0.6-1.1c0-0.2,0.1-0.5,0.1-0.7c1.2-3.4,2.1-6.8,4.7-9.7
	c2.6-2.8,4.6-6.3,6.8-9.5c1-0.6,1.7-1.4,1.8-2.5c-0.1,1.1-0.8,1.9-1.8,2.5c-0.1-1.4,0.6-2.4,1.8-3c0,0,0,0,0,0c0,0,0-0.1,0-0.1
	c0.6,0,1-0.2,1.2-0.5c0.1-0.1,0.2-0.3,0.2-0.5c0,0.2-0.1,0.4-0.2,0.5c-0.2,0.3-0.6,0.5-1.2,0.5c0.1-0.9,0.2-1.9,1.5-2v0
	c0.3-0.5,0.7-1,1-1.6c2.5-2,2.9-5,3.5-7.9c0.2-0.5,0.5-1.1,0.7-1.6c0.7,0,0.8-0.5,0.8-1.1c0.7-1.4,0.2-3.1,1-4.5
	c0.3,0.1,0.5,0,0.7-0.1c-0.2,0.1-0.4,0.2-0.7,0.1c0.2-1.9,0.2-3.8,1.5-5.4c0.1-0.9,0-1.8,0.7-2.5c0.2-0.3,0.4-0.5,0.6-0.8
	c-0.2,0.3-0.4,0.5-0.6,0.8c-0.2-1.9-0.2-3.8,0.8-5.5c0.1-1,0.1-2.1,0.2-3.1c0.4-0.2,0.6-0.4,0.8-0.7c-0.2,0.2-0.4,0.5-0.8,0.7
	c-0.2-1-0.4-2,0.2-2.9c0.1-0.7,0.2-1.3,0.3-2c-0.1-3.7-0.5-7.4,0.4-11c0-7.4,0.1-14.7,0.1-22.1c0-5.6,0-11.3,0-16.9h0
	c-0.9-0.6-0.5-1.5-0.5-2.3c-0.2-22.1-0.4-44.3,0-66.4c0.1-4,0.4-8,0.6-11.9c-0.2-7.9,0.1-15.7,0.4-23.6c0-3.4-0.1-6.8-0.1-10.2
	c0-0.6-0.1-1.5,0.8-1.5c1,0,1.2,0.8,1.1,1.6c0,3.6-0.1,7.1-0.2,10.7c0.3,7.7,0.3,15.3,0.2,23c0.6,4.3,0.4,8.7,0.6,13
	c0.5,1.1,0.4,2.2,0.1,3.3c0.1,0.9,0.3,1.8,0.3,2.7c0,14.4,0,28.9,0,43.3c0,0.9-0.2,1.8-0.3,2.7c0.3,2.4,0.4,4.8,0,7.2
	c-0.1,9.9-0.2,19.8-0.3,29.7c0,0.9,0.2,1.8-0.3,2.7c0.1,7.1,0.3,14.2,0.4,21.3c1,3.8,1.5,7.7,1.2,11.7c-0.3-0.2-0.5-0.3-0.8-0.5
	c0.1-2.8-0.2-5.6-0.7-8.4c-0.1-0.5-0.2-1-0.2-1.5c0,0.5,0.1,1,0.2,1.5c0.4,2.8,0.7,5.5,0.7,8.4c-1,6.4-0.2,12.6,1.1,18.9
	c0,0.1,0.1,0.1,0.2,0.2c0,1.5,0.1,2.9,0.1,4.4c0,0.4-0.1,0.9-0.2,1.3c0.1-0.4,0.2-0.9,0.2-1.3c1.2,1,0.9,2.2,0.7,3.3
	c0.2-1.2,0.5-2.4-0.7-3.3c0-1.5-0.1-2.9-0.1-4.4c0-0.9,0-1.9,0.1-2.8c0,0.9,0,1.9-0.1,2.8c-0.1,0-0.2-0.1-0.2-0.2
	c-1.3-6.2-2.1-12.5-1.1-18.9c0.3,0.2,0.5,0.3,0.8,0.5c0.1,1,0.2,2.1,0.3,3.1c-0.4,0.7-0.4,1.4-0.4,2.1c0-0.7,0.1-1.4,0.4-2.1
	c0.8,3.1,1.6,6.1,2.4,9.2c1.2,5,3.5,9.6,5.5,14.3c1.6,3.7,3.7,7.1,6,10.4c1.8,2.6,3.6,5.4,5.6,7.8c6.2,7.6,7.6,16.2,5.8,25.7
	c-1.8,9.5-3.2,19.1-5.3,28.6c-2.2,9.9-4.8,19.8-7.7,29.5c-0.7,2.5-1.9,4.8-1.9,7.4c0,0-0.4,0.1-0.7,0.1c-0.1,0.6-0.3,1.1-0.4,1.7
	c-0.1,6.9-0.4,13.9-1.6,20.7c-1.3,7.4-3.2,14.6-5.2,21.8c-0.4,1.3-0.8,2.5-1.6,3.5c-0.2-0.2-0.3-0.4-0.5-0.6
	c0.1,0.2,0.3,0.4,0.5,0.6v0l0,0c0.3,0.8,0.2,1.7,0,2.5c-0.4,0.6-0.8,1.2-1.1,1.9c-0.3,0.6-0.5,1.3-0.6,1.9c0.1-0.7,0.4-1.3,0.6-1.9
	c0.3-0.6,0.6-1.3,1.1-1.9c0.7,1.7,0.3,3.5,0.5,5.2c1.1,0.8,0.8,1.8,0.4,2.8c0.6,2.8,0.3,5.6,0.1,8.4c-0.3,0.3-0.4,0.5-0.6,0.8
	c0.1-0.3,0.3-0.6,0.6-0.8c0.3,1.6,0.7,3.2-0.4,4.7c-0.1,3.1-0.1,6.1-0.2,9.2h0c0.2,0.4,0.5,0.7,0,1.1h0c0,0,0,0,0,0v0
	c-0.4-0.1-0.5-0.4-0.5-0.7c0,0.3,0.1,0.6,0.5,0.7c0,0.3,0.1,0.6,0.1,0.9c-0.2,0.8-0.3,1.6-0.3,2.4c0,1.5,0.2,2.9,0.5,4.3
	c0.2,0.9,0.3,1.7,0.4,2.6c0,0.1,0,0.1,0,0.2c0-0.1,0-0.1,0-0.2c-0.1-0.9-0.3-1.7-0.4-2.6c-0.3-1.4-0.5-2.9-0.5-4.3
	c0-0.8,0.1-1.6,0.3-2.4v0c1.2,1,0.8,2.5,1,3.7c0.5,3,0.5,6,0.7,9c-0.5-0.2-0.8-0.5-1-0.8c0.2,0.3,0.5,0.6,1,0.8
	c0.1,0.5,0.1,0.9,0.2,1.4c0.9,2,1.1,4,0.7,6.1c0.1,0.5,0.1,0.9,0.2,1.4c-0.1,0.3-0.1,0.7-0.2,1c-0.4,1.9-0.6,3.7-0.4,5.5
	c0.1,0.9,0.2,1.8,0.4,2.7c0.2,0.9,0.6,1.8,1,2.7c0.2,2,0.4,3.9,0.6,5.9c2,1.4,2.3,3.8,3.1,5.7c1.9,4.5,2.8,9.5,4.5,14.1
	c2,5.4,3.9,10.9,5.6,16.4c3.1,9.9,5.8,19.9,6.6,30.3c0.4,5.4,0.7,10.8-0.3,16.1c-0.8,4.6-1.7,9.2-3.8,13.5c-1.3,2.7-2.7,5.1-4.5,7.5
	c0.1-1.4,0.2-2.8,0.3-4.1c0.1-1.4,0.1-2.7,0.1-4.1c0,1.4,0,2.7-0.1,4.1c-0.1,1.4-0.2,2.8-0.3,4.1c0,0.4,0,0.9-0.6,1
	c-0.1,0.4-0.2,0.7-0.2,1.1c-1.8,18.3-2.2,36.6-0.4,55c-0.1,0-0.2,0.1-0.2,0.2c0,0,0,0,0,0c0.1-0.1,0.1-0.1,0.2-0.2
	c4.3,1.1,7.2,4.6,10.9,6.7c2.9,1.7,5.4,4,8,6.2c1,0.8,1.9,1.7,2.6,2.6C86,612.5,82.8,616.3,78.8,619.6z M14.1,496.4
	c0-0.6-0.1-1.2-0.2-1.7C14,495.2,14.1,495.8,14.1,496.4z M17.9,475.9c0,0.2-0.1,0.3-0.2,0.4C17.8,476.2,17.9,476,17.9,475.9z
	 M22.4,526.6c0,2,0.1,3.9-0.2,5.9c-0.6-0.1-1-0.4-1.3-0.8c0.3,0.4,0.7,0.7,1.3,0.8C22.5,530.5,22.4,528.5,22.4,526.6z M22.8,509.6
	c0,1.3,0.1,2.6,0.1,3.9C22.9,512.2,22.8,510.9,22.8,509.6z M24.2,512.4c-0.1,1-0.2,2-0.3,3c0,0.1,0,0.3-0.1,0.4
	c-0.1,0.3-0.4,0.5-0.9,0.6v0v0h0c0,1.3-0.1,2.7-0.1,4c1.1,0.8,0.5,2,0.6,3c0,1.3,0,2.6,0,4c0-1.3,0-2.6,0-4c0-1,0.5-2.2-0.6-3
	c0-1.3,0.1-2.7,0.1-4c0.4,0,0.7-0.2,0.9-0.6c0-0.1,0.1-0.2,0.1-0.4v0C24,514.4,24.1,513.4,24.2,512.4z M24.5,507.3
	c0,0.7-0.1,1.3-0.1,2c0,0,0,0.1,0,0.1c0,0,0-0.1,0-0.1C24.4,508.6,24.4,507.9,24.5,507.3z M25.8,500.7c-0.1,0.3-0.2,0.7-0.4,1
	c-0.1,0.3-0.2,0.5-0.3,0.8c0.1-0.3,0.2-0.5,0.3-0.8C25.6,501.3,25.7,501,25.8,500.7z M28.6,486.9c-0.1,0.7-0.3,1.3-0.4,2
	c-0.1,0.4-0.2,0.7-0.2,1.1c0.1-0.4,0.1-0.7,0.2-1.1C28.3,488.2,28.4,487.6,28.6,486.9z M27.8,490.5c-0.2,1.3-0.4,2.6-0.6,3.8
	C27.4,493,27.6,491.7,27.8,490.5z M30.5,476.3c-0.1,0.1-0.2,0.1-0.4,0.1v0c-0.1,0.7-0.1,1.3-0.2,2l0,0c0.1-0.7,0.1-1.3,0.2-2
	C30.3,476.4,30.4,476.4,30.5,476.3z M31.2,475.5L31.2,475.5c0,0.1,0,0.1-0.1,0.2C31.1,475.6,31.1,475.5,31.2,475.5z M22.2,594.8
	L22.2,594.8c0.2,0.6,0.2,1.2,0.3,1.9C22.5,596.1,22.4,595.4,22.2,594.8c-3.5,0.8-6.5,2.9-9.4,5c-2.8,2.1-5.9,3.9-8.6,6.2
	c-1.9,1.6-2.9,3.4-3.1,5.3c0.2-1.9,1.2-3.7,3.1-5.3c2.7-2.3,5.8-4.1,8.6-6.2C15.7,597.7,18.7,595.6,22.2,594.8z M23.4,629.9
	c-0.1-3.4-0.7-6.7-1.1-10.1c-0.2-1.9-0.3-3.8-0.3-5.7c0,1.9,0.1,3.8,0.3,5.7C22.7,623.2,23.3,626.5,23.4,629.9
	C23.4,629.9,23.4,629.9,23.4,629.9z M25.8,929.2c0.1-0.4,0.1-0.9,0.1-1.3C26,928.3,25.9,928.8,25.8,929.2z M18.1,1002.1
	c-0.7-1.1-1.3-2.3-1.9-3.5c-0.2-0.4-0.3-0.8-0.7-1c0.3,0.2,0.5,0.6,0.7,1C16.8,999.8,17.4,1000.9,18.1,1002.1z M23.2,1009.7
	c-1-1.4-2-2.9-3-4.3C21.2,1006.9,22.2,1008.3,23.2,1009.7z M28.7,1017.6c-0.4-0.5-0.7-0.9-1-1.4c-0.5-0.7-1-1.5-1.5-2.2
	c0.5,0.7,1,1.4,1.5,2.2C28,1016.6,28.4,1017.1,28.7,1017.6z M50.7,471.6c-0.1-0.4-0.2-0.8-0.2-1.2C50.5,470.8,50.6,471.2,50.7,471.6
	c0.5,3.9,1.8,7.6,3.2,11.3c0.2,0.5,0.2,1.1,0.3,1.7c-0.1-0.6-0.1-1.2-0.3-1.7C52.4,479.2,51.2,475.5,50.7,471.6z M48.5,447
	c0.1-0.5,0.3-1.1,0.5-1.6C48.8,446,48.6,446.5,48.5,447z M49,450.4c-0.1-0.3-0.2-0.6-0.3-0.9C48.7,449.8,48.8,450.1,49,450.4
	L49,450.4c0.3,0,0.5-0.1,0.8-0.1c0,0,0,0,0,0C49.5,450.3,49.2,450.3,49,450.4z M47.8,460c-0.2-0.9-0.2-1.9,0.9-2.6
	c0.3,2.6,0.5,5.1,1.1,7.6c-0.6-2.5-0.8-5-1.1-7.6c0.3-0.8,0.3-1.7,0.2-2.5c0.1-0.2,0.1-0.3,0.2-0.5c0.3-0.6,0.5-1.2,0.7-1.9
	c-0.2,0.6-0.4,1.3-0.7,1.9c-0.2,0-0.4,0-0.6,0c0.1-1.2,0.3-2.4,0.4-3.6c-0.1,1.2-0.3,2.4-0.4,3.6c0.1,0.1,0.2,0.2,0.3,0.3
	c-0.1-0.1-0.2-0.2-0.3-0.3c0.2,0,0.4,0,0.6,0c-0.1,0.2-0.1,0.3-0.2,0.5c0,0,0,0,0,0c0.2,0.9,0.2,1.7-0.2,2.5
	C47.6,458.1,47.7,459.1,47.8,460z M44,579.3L44,579.3c1.8,1,3.1,2.5,4.5,3.9C47.1,581.8,45.8,580.3,44,579.3
	c-1.9-7.9-1.7-15.9-0.1-23.8l0,0c0.4-2.4,0.5-4.8,0.5-7.2c0-2.4-0.2-4.8-0.4-7.2c0,0,0-0.1,0-0.1c-0.1-0.8-0.1-1.6-0.1-2.4
	c0-6.1,0-12.2,0-18.2c0,6.1,0,12.2,0,18.2c0,0.8,0,1.6,0.1,2.4c0,0,0,0.1,0,0.1c0.3,2.4,0.4,4.8,0.4,7.2c0,2.4-0.2,4.8-0.5,7.2
	C42.3,563.4,42.1,571.4,44,579.3z M43.4,581.1c-0.1,2.7-0.1,5.4-0.2,8.2c-0.1,2.6-0.1,5.2-0.2,7.7c-0.1,1.9-0.1,3.8-0.1,5.7
	c0-1.9,0.1-3.8,0.1-5.7c0.1-2.6,0.2-5.2,0.2-7.7C43.3,586.5,43.3,583.8,43.4,581.1c0-0.4,0-0.7,0.1-1
	C43.4,580.4,43.4,580.7,43.4,581.1z M43.3,681.9c0.2-3.8,0.2-7.7,0.1-11.5c0-0.3,0-0.5,0.1-0.8c0,0.3-0.1,0.5-0.1,0.8
	C43.6,674.2,43.5,678,43.3,681.9z M44.8,736.8C44.8,736.8,44.8,736.8,44.8,736.8C44.8,736.8,44.8,736.8,44.8,736.8
	c0.1,0.2,0.2,0.3,0.3,0.5v0c0,0,0,0,0,0C45,737.2,44.9,737,44.8,736.8z M46.2,843.9c0.1-0.1,0.1-0.2,0.1-0.3
	C46.3,843.7,46.3,843.8,46.2,843.9c-0.4-0.1-0.7-0.3-0.7-0.5C45.6,843.6,45.9,843.8,46.2,843.9c0.4,4.7,0.3,9.4-0.1,14.1
	C46.5,853.4,46.6,848.7,46.2,843.9z M47.8,674.3L47.8,674.3c-0.1,1.3-0.3,2.5-0.6,3.7C47.5,676.8,47.7,675.5,47.8,674.3z
	 M46.8,907.8c0.3-3.7,0.5-7.4,0.7-11.1C47.3,900.4,47.1,904.1,46.8,907.8z M47,981.4C47,981.4,47,981.4,47,981.4
	c0.1-0.1,0.2-0.3,0.3-0.4C47.2,981.1,47.1,981.2,47,981.4c-0.4-0.3-0.6-0.6-0.5-0.9C46.4,980.8,46.6,981.1,47,981.4z M45.7,971.4
	c0.1-0.1,0.1-0.2,0.1-0.3C45.8,971.2,45.7,971.3,45.7,971.4C45.7,971.4,45.7,971.4,45.7,971.4c0,0.3,0,0.6,0.1,0.9
	C45.7,972,45.7,971.7,45.7,971.4z M45.4,971.4c-0.6-0.1-0.8-0.3-0.8-0.6C44.6,971,44.8,971.3,45.4,971.4z M45.2,972.9L45.2,972.9
	c0,0.3,0.2,0.4,0.5,0.4C45.4,973.3,45.2,973.2,45.2,972.9z M44.9,1007.3L44.9,1007.3L44.9,1007.3L44.9,1007.3z M45.2,887.5
	c-0.2-1.2-0.3-2.6-1.7-3.2c-0.2-1-0.3-1.9-0.4-2.9c0.1,1,0.2,2,0.4,2.9C44.8,885,44.9,886.3,45.2,887.5z M43.9,1013.8L43.9,1013.8
	L43.9,1013.8L43.9,1013.8C43.9,1013.9,43.9,1013.9,43.9,1013.8z M42.9,723.5c-0.1,1,0,2,0.8,2.9c0.1,2.1,0.1,4.2,0.2,6.3
	c-0.1-2.1-0.1-4.2-0.2-6.3v0c0.1-1,0.2-2,0.3-3c-0.1,1-0.2,2-0.3,3C42.9,725.5,42.8,724.5,42.9,723.5z M43.6,706.1
	C43.6,706.1,43.6,706.1,43.6,706.1L43.6,706.1C43.6,706.1,43.6,706.1,43.6,706.1z M44.3,734.4c0-0.1,0.1-0.3,0.1-0.4
	C44.3,734.1,44.3,734.2,44.3,734.4c-0.6-0.2-0.8-0.4-0.8-0.8C43.4,734,43.7,734.2,44.3,734.4c0,0.5,0.1,1,0.1,1.5
	C44.3,735.4,44.3,734.9,44.3,734.4z M44.7,869.9c-0.5,0.8-0.9,1.7-1.2,2.6C43.8,871.6,44.2,870.8,44.7,869.9c0-0.4,0.4-0.9,0.4-1.4
	C45.1,869,44.7,869.5,44.7,869.9c-0.6-0.3-0.8-0.6-0.8-0.9C43.9,869.3,44.1,869.6,44.7,869.9z M44.4,736.8c-0.2-0.1-0.3-0.1-0.3-0.3
	C44.1,736.6,44.2,736.7,44.4,736.8z M44.3,720.9c-0.1,0.2-0.2,0.4-0.4,0.5c0,0,0,0,0,0C44.1,721.2,44.2,721,44.3,720.9z M45,969.3
	L45,969.3L45,969.3L45,969.3z M45.9,968.9c0-0.3-0.2-0.5-0.6-0.7c-0.1-0.9-0.1-1.8-0.2-2.6c0.1,0.9,0.1,1.8,0.2,2.6
	C45.7,968.4,45.9,968.6,45.9,968.9z M46.9,976.4c0.1-0.6,0-1.2-0.7-1.7c-0.1-0.5-0.2-0.9-0.4-1.4c0.1,0.5,0.2,0.9,0.4,1.4l0,0
	C47,975.2,47,975.8,46.9,976.4z M46,977.4c0.3,0,0.5,0.1,0.8,0.1c0,0.2,0,0.3,0,0.5c0-0.2,0-0.3,0-0.5c0,0,0,0,0-0.1c0,0,0,0,0,0.1
	C46.5,977.4,46.2,977.4,46,977.4C46,977.4,46,977.4,46,977.4z M45.7,862.8c0,0.1-0.1,0.3-0.1,0.4C45.6,863.1,45.7,862.9,45.7,862.8
	C45.7,862.8,45.7,862.8,45.7,862.8z M45.4,742.9L45.4,742.9c0-0.3-0.1-0.6-0.1-1C45.3,742.3,45.3,742.6,45.4,742.9
	c-0.4,0.5-0.3,0.7,0,0.9C45,743.6,44.9,743.4,45.4,742.9z M45.8,741.8c-0.2,0-0.4,0-0.6,0c0,0,0,0,0,0c0,0,0,0,0,0
	C45.4,741.9,45.6,741.8,45.8,741.8z M45.8,743.9C45.8,743.9,45.8,743.9,45.8,743.9C45.8,743.9,45.8,743.9,45.8,743.9
	c0.1,0.4,0.2,0.9,0.3,1.3C45.9,744.7,45.9,744.3,45.8,743.9z M46.1,742.7c-0.1,0.1-0.1,0.2-0.3,0.2v0
	C46,742.8,46.1,742.7,46.1,742.7z M44.9,738.4c0-0.2,0.1-0.4,0.1-0.6C45,738,44.9,738.2,44.9,738.4
	C44.9,738.4,44.9,738.4,44.9,738.4c0.3,0,0.5,0.1,0.8,0.1c0,0,0,0,0,0c0,0,0,0,0,0C45.4,738.5,45.2,738.4,44.9,738.4z M44.5,867
	C44.5,867,44.5,867,44.5,867c0.9-0.6,1-1.4,1-2.3C45.5,865.6,45.4,866.4,44.5,867z M44.7,688.1c-2.2,8.8-2.7,17.6-1.4,26.6
	c0.3,1.9,0,3.8,0,5.7c-0.8-0.2-0.9-0.8-0.9-1.3c0,0.6,0.1,1.1,0.9,1.3c0,0.2,0,0.4,0,0.7c0-0.2,0-0.4,0-0.7c0-1.9,0.2-3.9,0-5.7
	C42,705.7,42.5,696.9,44.7,688.1L44.7,688.1z M42.5,693.6c0,0.2,0,0.3,0,0.5c0,0.3-0.1,0.5-0.1,0.7c0.1-0.2,0.1-0.4,0.1-0.7
	C42.5,694,42.5,693.8,42.5,693.6z M42.3,695c-0.2,0.7-0.6,1-1.4,0.9c-0.1,0-0.3,0-0.4,0c0-0.5-0.1-1-0.1-1.5
	c0.3-0.3,0.4-0.6,0.5-0.9c-0.1,0.3-0.2,0.6-0.5,0.9v0c-0.1-0.1-0.2-0.2-0.3-0.3c-0.2-0.3-0.2-0.6-0.2-0.9c0,0.3,0,0.6,0.2,0.9
	c0.1,0.1,0.2,0.2,0.3,0.3c0,0.5,0.1,1,0.1,1.5v0c0.1,0,0.3,0,0.4,0C41.7,695.9,42.1,695.7,42.3,695z M40.9,701.5
	c0-0.8-0.2-1.6-0.3-2.5C40.8,699.9,40.9,700.7,40.9,701.5c0,0.9,0,1.7,0,2.6C41,703.3,41,702.4,40.9,701.5z M40.8,649.1
	c0-0.2,0-0.4,0-0.6C40.8,648.7,40.8,648.9,40.8,649.1c0,0.6,0,1.2,0,1.8C40.8,650.3,40.8,649.7,40.8,649.1z M40.1,692.5
	c0.5,0.2,0.8,0.4,0.8,0.7C40.9,692.9,40.7,692.6,40.1,692.5z M43.1,294.3c-0.2,5.2-0.2,10.4-0.2,15.6
	C42.8,304.7,42.9,299.5,43.1,294.3c0.1-1.7,0.1-3.4,0-5.1C43.1,290.9,43.1,292.6,43.1,294.3z M43.5,338.4c-0.6,2.2-0.8,4.4-0.8,6.6
	c0,1.3,0.1,2.7,0.2,4c0.1,0.8,0.1,1.6,0.3,2.3c0.1,0.8,0.4,1.7,0.6,2.5c-0.3-0.8-0.5-1.6-0.6-2.5c-0.1-0.8-0.2-1.6-0.3-2.3
	c-0.1-1.3-0.2-2.6-0.2-4C42.7,342.8,42.9,340.6,43.5,338.4L43.5,338.4C43.5,338.4,43.5,338.4,43.5,338.4c-0.6-0.4-0.7-1-0.6-1.5
	C42.9,337.5,43,338,43.5,338.4z M42.9,336C42.9,335.9,42.9,335.9,42.9,336C42.9,335.9,42.9,335.9,42.9,336
	C42.9,335.9,42.9,335.9,42.9,336z M43.7,368.7c0,0.7,0.1,1.4,0.1,2.2c0,0.9,0.1,1.8,0.2,2.7c-0.1-0.9-0.1-1.8-0.2-2.7
	C43.8,370.2,43.7,369.5,43.7,368.7z M43.2,514.2c0.2,0.7,0.4,1.5,0.5,2.2C43.6,515.7,43.4,514.9,43.2,514.2c-0.2-0.6-0.3-1.3-0.3-2
	C42.9,512.9,43,513.6,43.2,514.2z M43.9,520.3L43.9,520.3c0-0.6,0-1.1,0-1.7C43.9,519.2,43.9,519.8,43.9,520.3z M46.7,402.9
	c0,0.2,0,0.4,0.1,0.5C46.7,403.3,46.7,403.1,46.7,402.9z M44.4,493.7c-1,5.4-0.7,10.9-1.5,16.3c-0.1,0.7-0.1,1.4-0.1,2.1
	c0-0.7,0-1.4,0.1-2.1C43.7,504.6,43.4,499.1,44.4,493.7c1.1-5.9,1.6-12,2.7-17.9c0.7-3.6,1.2-7.3,1.1-11c0-1.2-0.1-2.5-0.2-3.7
	c0,0,0,0,0-0.1c0,0,0,0,0,0.1c0.1,1.2,0.2,2.5,0.2,3.7c0,3.7-0.4,7.4-1.1,11C46,481.7,45.5,487.8,44.4,493.7z M45.3,389.2
	c0.1,0.2,0.1,0.4,0.2,0.6h0C45.4,389.6,45.4,389.4,45.3,389.2z M45,384.4c0,0.6,0,1.3,0,2v0C45.1,385.7,45.1,385.1,45,384.4z
	 M47.9,245.2c-0.1-0.1-0.3-0.2-0.4-0.3c0,0,0,0,0,0c0.2-1-0.2-2.2-0.1-3.2c-0.1,1,0.2,2.2,0.1,3.2c0,0,0,0,0,0h0c0,0,0,0,0,0
	c-0.9,0.7-0.6,1.7-0.6,2.5c0,0.5,0,0.9,0,1.4c-0.1,3.2-0.6,6.4-1.3,9.4c-1.1,5.2-1.4,10.5-2,15.7c-0.3,2.5-0.5,5.1-0.5,7.6
	c0-2.5,0.2-5.1,0.5-7.6c0.7-5.2,0.9-10.5,2-15.7c0.7-3,1.2-6.2,1.3-9.4c0-0.5,0-0.9,0-1.4c0-0.9-0.4-1.9,0.6-2.5
	C47.7,245,47.8,245.1,47.9,245.2z M54.2,307.9c-1.1-0.5-0.7-1.4-0.7-2.2c-0.1-6.9-0.9-13.7-1.9-20.5c-0.2-1.2-0.2-2.4-0.2-3.6
	c0,1.2,0,2.4,0.2,3.6c1,6.8,1.8,13.6,1.9,20.5C53.5,306.5,53.2,307.5,54.2,307.9c0.1-0.2,0.2-0.5,0.3-0.8
	C54.4,307.4,54.3,307.7,54.2,307.9z M51.4,280.4c0-1.6,0-3.2-0.3-4.8c0,0,0,0,0,0C51.4,277.2,51.4,278.8,51.4,280.4z M51.5,271.6
	c0.1,1.1,0.1,2.2,0.2,3.4c1.5,4.3,1.9,8.7,2.2,13.1c-0.3-4.4-0.8-8.8-2.2-13.1C51.7,273.8,51.6,272.7,51.5,271.6z M50.5,270.5
	c-0.3-3-0.7-6.1-1-9.1c0-0.3-0.1-0.5-0.1-0.8c0,0.3,0,0.6,0.1,0.8C49.8,264.4,50.2,267.5,50.5,270.5c0.1,0.6,0.4,0.9,1,0.9
	c0,0,0,0,0,0C51,271.3,50.6,271.1,50.5,270.5z M49.9,254.4c-1.6-1.9-1-4.3-1.4-6.4c-0.1-0.3-0.1-0.6,0-0.8c0,0.3,0,0.6,0,0.8
	C48.9,250.2,48.3,252.5,49.9,254.4c0.1,1.7,0.2,3.3,0.2,5c0,0,0.1,0,0.1,0.1c0,0-0.1,0-0.1-0.1C50.1,257.7,50,256.1,49.9,254.4
	c0-0.4,0.1-0.8,0.1-1.2C50,253.7,49.9,254,49.9,254.4z M48.4,236.6c0.1-0.4,0.1-0.8,0.1-1.3C48.6,235.8,48.5,236.2,48.4,236.6z
	 M47.1,227.7c0-0.1,0.1-0.2,0.2-0.4c0,0,0,0,0,0C47.2,227.4,47.1,227.5,47.1,227.7c-0.1,0.3,0.1,0.6,0.5,0.7c0.1,1.5,0.1,3,0.2,4.5
	c-0.2,0.5-0.3,1-0.4,1.5c-0.2,1.2-0.1,2.4,0.6,3.5c0,0,0,0,0,0c0,0,0,0,0,0c0,0.3-0.1,0.5-0.1,0.8c0,0.4,0.1,0.8,0.3,1.2
	c-0.4,0.4-0.7,0.9-0.8,1.3c0.1-0.5,0.3-0.9,0.8-1.3c1.2,1.2,0.9,2.8,0.8,4.2c0.1-1.5,0.4-3-0.8-4.2c-0.2-0.4-0.3-0.8-0.3-1.2
	c0-0.3,0-0.5,0.1-0.8c0,0,0,0,0,0c-0.8-1.1-0.9-2.3-0.6-3.5c0.1-0.5,0.2-1,0.4-1.5c0,0,0,0,0,0c-0.1-1.5-0.1-3-0.2-4.5c0,0,0,0,0,0
	C47.2,228.2,47,228,47.1,227.7z M45.8,200.1c0.1,2.4,0.1,4.9,0.2,7.3c0.7,3.1,1.4,6.3,0.7,9.5c-0.2,0-0.5,0-0.7,0v0
	c-0.3,0.3-0.4,0.5-0.4,0.6c0,0.2,0.4,0.3,0.8,0.4c0.1,0.5,0.2,1.1,0.3,1.6c-0.1-0.5-0.2-1.1-0.3-1.6c0.1-0.3,0.2-0.7,0.3-1
	c0.7-3.2,0-6.4-0.7-9.5C45.9,205,45.8,202.5,45.8,200.1z M45.8,200C45.8,200,45.8,200,45.8,200c-1-0.7-1-1.6-0.9-2.5
	C44.8,198.4,44.8,199.3,45.8,200z M42,119.1c0,3.1,0,6.1,0,9.2C42,125.3,42,122.2,42,119.1c0-1.7,0-3.4,0-5.7h0
	C42,115.7,42,117.4,42,119.1z M40.7,165.6c0.2-1.8,0.4-3.6,0.4-5.3C41,162,40.8,163.8,40.7,165.6c0,0.1-0.2,0.2-0.4,0.3
	C40.4,165.8,40.7,165.7,40.7,165.6z M39.4,186.4C39.4,186.4,39.4,186.4,39.4,186.4c0,2.5,0,4.8,0,7.1s0,4.5,0,6.7c0,0,0,0,0,0
	c0-2.2,0-4.4,0-6.7C39.4,191.3,39.4,188.9,39.4,186.4c2.6,4.4-0.2,9.2,2.9,13.2c1.9,2.6,1.8,6.4,1.9,9.8c0,1-0.1,2.7,1.7,2.9
	c0,0,0,0,0,0c0,0,0,1.1,0.1,2.2l-0.1-2.2h0c-1.8-0.2-1.7-1.9-1.7-2.9c-0.1-3.4,0.1-7.3-1.9-9.8C39.3,195.6,42,190.9,39.4,186.4z
	 M45.9,214.7c0,0.6,0,1.2,0.1,1.7L45.9,214.7z M39.7,174.8c0.1,0.4,0.2,0.8,0.2,1.2C39.9,175.7,39.8,175.3,39.7,174.8z M38.3,186.3
	c0.1,0.8,0.2,1.6,0.2,2.4C38.4,187.9,38.3,187.1,38.3,186.3L38.3,186.3C38.3,186.3,38.3,186.3,38.3,186.3z M37.8,207.9
	C37.8,207.9,37.8,207.9,37.8,207.9C37.8,207.9,37.8,207.9,37.8,207.9C37.8,207.9,37.8,207.9,37.8,207.9
	C37.8,207.9,37.8,207.9,37.8,207.9c0.4,0.9,0.7,1.7,0.7,2.6C38.5,209.6,38.2,208.8,37.8,207.9c0.1-1.3,0.1-2.7,0.2-4c0,0,0,0,0,0
	c1.2-0.6,1.4-1.6,1.4-2.7c0,1.1-0.2,2.1-1.4,2.7c0,0,0,0,0,0c0,0,0,0,0,0v0C38,205.3,37.9,206.6,37.8,207.9z M37,216.4
	c0,1.2-0.1,2.3-0.1,3.5v0c0,0,0,0,0,0c0,0,0,0,0,0c0,0,0,0,0,0c0.1,0.6,0.2,1.1,0.3,1.7c-0.1-0.6-0.2-1.1-0.3-1.7c0,0,0,0,0,0
	C37,218.8,37,217.6,37,216.4c1.2-0.5,1.1-1.2,0.3-2c0-0.5,0.1-1,0.1-1.5v0c0.6-0.5,0.9-1.1,1-1.7c-0.1,0.6-0.4,1.1-1,1.7
	c0,0.5-0.1,1-0.1,1.5C38.2,215.2,38.3,215.9,37,216.4z M38.5,211.1c0-0.1,0-0.3,0-0.4C38.6,210.8,38.6,211,38.5,211.1z M37.5,225.1
	C37.5,225.1,37.5,225.1,37.5,225.1C37.5,225.1,37.5,225.1,37.5,225.1z M29.8,299.9C29.8,299.9,29.8,299.9,29.8,299.9
	C29.8,299.9,29.8,299.9,29.8,299.9C29.8,299.9,29.8,299.9,29.8,299.9C29.8,299.9,29.8,299.9,29.8,299.9c0.5,1.3,0.9,2.6,0.7,3.8
	C30.7,302.5,30.3,301.2,29.8,299.9c0-1.5,0.1-3,0.1-4.5c0,0,0,0,0,0c1.4-2.4,1.9-4.8,0.9-7.5c0-1.3,0.1-2.6,0.1-4
	c1-0.3,1.2-0.8,0.3-1.5c0-1.5,0.1-3,0.1-4.5v0c1.3-0.5,1.1-1.2,0.4-2c0-0.5,0.1-1,0.1-1.5v0c1.5-1.5,1.9-5.2,0.9-7.5
	c0-1,0.1-2,0.1-3v0c1.3-1.2,1.8-5.5,0.9-7.5c0.1-1.5,0.1-3,0.2-4.5c1-0.3,1.2-0.8,0.3-1.5c0.2-2.3,0.4-4.7,0.6-7c0,0,0,0,0,0
	c1.7-1.7,1-3.6,0.4-5.5c0-0.7,0-1.3,0.1-2c0,0,0,0,0,0c1.7-1.2,1.1-2.6,0.4-4c0-0.5,0.1-1,0.1-1.5c0,0,0,0,0,0v0
	c0,0.5-0.1,1-0.1,1.5c0,0,0,0,0,0c0,0,0,0,0,0v0c0,0,0,0,0,0c0.7,1.4,1.3,2.8-0.4,4c0,0.7-0.1,1.3-0.1,2c0,0,0,0,0,0c0,0,0,0,0,0v0
	c0,0,0,0,0,0c0.6,1.9,1.3,3.8-0.4,5.5v0l0,0v0c-0.2,2.3-0.4,4.7-0.6,7c0,0,0,0,0,0c0,0,0,0,0,0v0c0,0,0,0,0,0
	c0.9,0.7,0.7,1.2-0.3,1.5c0,0,0,0,0,0h0v0c-0.1,1.5-0.1,3-0.2,4.5c0,0,0,0,0,0c0,0,0,0,0,0c0,0,0,0,0,0c0,0,0,0,0,0
	c0.9,2,0.4,6.2-0.9,7.5v0c0-0.3,0-0.6,0-1c0,0.3,0,0.6,0,1c0,1-0.1,2-0.1,3c0,0,0,0,0,0c0,0,0,0,0,0c0,0,0,0,0,0c0,0,0,0,0,0
	c1,2.3,0.6,6-0.9,7.5c0,0.5-0.1,1-0.1,1.5c0.7,0.8,0.9,1.6-0.4,2h0c0,1.5-0.1,3-0.1,4.5c0.9,0.7,0.7,1.2-0.3,1.5
	c0,1.3-0.1,2.6-0.1,4c0,0,0,0,0,0c1,2.7,0.5,5.1-0.9,7.5c0,0,0,0,0,0C29.9,296.9,29.9,298.4,29.8,299.9z M34.3,321.4
	c0,0.1-0.1,0.2-0.4,0.4c0,0,0,0,0,0C34.1,321.7,34.2,321.5,34.3,321.4c0.1-0.3-0.2-0.4-0.7-0.5c-1.3-4.3-2.6-8.6-3.9-12.9
	c-0.1-0.3-0.2-0.6-0.3-0.9c0-0.4,0-0.9,0-1.3c0,0,0,0,0,0v0c0,0,0,0,0,0c0.3-0.4,0.5-0.8,0.7-1.2c-0.2,0.4-0.4,0.8-0.7,1.2v0
	c0-0.5-0.1-1-0.1-1.5c0,0.5,0.1,1,0.1,1.5c0,0,0,0,0,0c0,0.4,0,0.9,0,1.3c0,0,0,0,0,0c0,0,0,0,0,0c0.1,0.3,0.2,0.6,0.3,0.9
	c1.3,4.3,2.6,8.6,3.9,12.9c0,0.1-0.1,0.2-0.1,0.3c0-0.1,0-0.2,0.1-0.3C34,321,34.4,321.2,34.3,321.4z M30.4,304.5
	c0.1-0.2,0.1-0.3,0.1-0.5C30.5,304.1,30.4,304.3,30.4,304.5z M38.7,334.8c0.1,1,0.2,2,0.2,3c0.1,0.2,0.2,0.5,0.3,0.7
	c-0.1-0.2-0.2-0.5-0.3-0.7C38.9,336.7,38.9,335.7,38.7,334.8c-0.3-2.1-1-4.1-2.6-5.8c0.1-2.3-1.4-4.1-2-6.2c0.6,2.1,2,3.9,2,6.2
	C37.7,330.7,38.4,332.6,38.7,334.8z M38.7,356.8c-0.2,0.5-0.3,1-0.2,1.6c0.2,0.3,0.4,0.7,0.3,1c0.1-0.3-0.1-0.7-0.3-1
	C38.4,357.8,38.6,357.3,38.7,356.8z M39.7,373.3c0.2-2.5,0.4-5.1,0.1-7.6C40.1,368.2,39.9,370.7,39.7,373.3
	C39.7,373.3,39.7,373.3,39.7,373.3c0.4,0.9,0.2,1.8,0.2,2.7C39.9,375.1,40.1,374.2,39.7,373.3z M39.9,376.4L39.9,376.4
	c0.3,0.4,0.5,0.8,0.6,1.1C40.4,377.2,40.1,376.8,39.9,376.4z M39.8,364.2c0-1.2-0.5-2.3-1.3-3.4l-0.1-0.9c0,0.3,0.1,0.6,0.1,0.9
	c0,0,0,0,0,0C39.3,361.9,39.8,363,39.8,364.2c0,0.4,0,0.8-0.1,1.3v0C39.8,365.1,39.8,364.7,39.8,364.2z M38.2,337.1
	c-0.1-0.3-0.1-0.6-0.2-0.9C38.1,336.5,38.1,336.8,38.2,337.1z M39.3,383.1c-0.1,0.1-0.2,0.1-0.3,0.2h0c0,0,0,0,0,0
	C39.1,383.3,39.2,383.2,39.3,383.1z M39,382.5c0-0.5,0-1.1,0-1.6c0-0.2,0-0.3,0-0.5c0.1-0.1,0.2-0.1,0.2-0.2c0,0.1-0.1,0.1-0.2,0.2
	v0c0,0,0,0,0,0c0,0,0,0,0,0c0,0.2,0,0.3,0,0.5C39,381.4,39,381.9,39,382.5c0,0.1,0,0.1,0,0.2C39,382.6,39,382.5,39,382.5
	C39,382.5,39,382.5,39,382.5C39,382.5,39,382.5,39,382.5c0.1,0.1,0.2,0.2,0.3,0.2C39.2,382.6,39.1,382.5,39,382.5z M33.5,447.5
	c0,2.6,0.2,5.1,0.6,7.6c0.3,1.4,0.3,2.9,0.2,4.3c0.1-1.4,0-2.8-0.2-4.3C33.6,452.6,33.5,450,33.5,447.5z M33.5,438.7
	c0,0.7,0,1.4,0,2C33.5,440.1,33.5,439.4,33.5,438.7c0-0.1,0-0.2,0-0.3C33.5,438.5,33.5,438.6,33.5,438.7z M34.5,465.3
	c-0.1,0.3-0.2,0.7-0.3,1c-0.1,0.4-0.2,0.8-0.3,1.2c-0.2,0.8-0.4,1.5-0.7,2.3c0.3-0.8,0.5-1.5,0.7-2.3c0.1-0.4,0.2-0.8,0.3-1.2
	C34.3,466,34.4,465.7,34.5,465.3z M35.7,461.2c-0.2,0.7-0.4,1.4-0.6,2.1C35.4,462.6,35.6,461.9,35.7,461.2z M35.9,458
	c-1.3-7.9-1.7-15.9-1.5-24c0-0.2,0-0.4,0-0.5c0,0.2,0,0.4,0,0.5C34.2,442,34.7,450,35.9,458z M40.2,406.8c-0.1,1.1-0.2,2.2-0.3,3.3
	c0,0.5-0.1,0.9-0.2,1.4c-0.1,0.9-0.3,1.9-0.6,2.8c0.2-0.9,0.4-1.8,0.6-2.8c0.1-0.5,0.1-0.9,0.2-1.4C40,409,40.1,407.9,40.2,406.8z
	 M40.3,403.6c0-2.2-0.1-4.4-0.3-6.6c-0.1-0.8-0.2-1.5-0.3-2.3c0.1,0.8,0.2,1.5,0.3,2.3C40.2,399.2,40.3,401.4,40.3,403.6z
	 M40.5,377.9c0,0.4-0.3,0.8-1.2,1v0c0,0.3-0.1,0.7-0.1,1c-0.1,0.1-0.1,0.1-0.1,0.2c0-0.1,0.1-0.1,0.1-0.2c0,0,0,0,0,0c0,0,0,0,0,0
	c0.1,0,0.1,0.1,0.1,0.1c0,0-0.1-0.1-0.1-0.1c0-0.3,0.1-0.7,0.1-1C40.2,378.7,40.5,378.3,40.5,377.9z M41,347.9c0-0.5,0-0.9,0-1.3
	C41.1,347,41,347.5,41,347.9c-0.2,2.8-1.5,5.2-2,7.8c0,0.2-0.1,0.4-0.1,0.5c0.1-0.2,0.1-0.4,0.1-0.5C39.5,353.1,40.8,350.7,41,347.9
	z M40.9,559.9c0.1,0.7,0.2,1.4,0.1,2.2c-0.2,2.2-0.3,4.4,0,6.5c-0.3-2.1-0.1-4.3,0-6.5C41,561.3,41,560.6,40.9,559.9z M36.4,581.8
	c-0.6,0.7-1.3,1.3-2,1.9c-2.6,2.2-5.1,4.5-7.9,6.3c2.8-1.9,5.3-4.1,7.9-6.3C35.1,583.2,35.8,582.5,36.4,581.8z M36.2,674.1
	C36.2,674.1,36.2,674.1,36.2,674.1C36.2,674.1,36.2,674.1,36.2,674.1C36.2,674.1,36.2,674.1,36.2,674.1
	C36.2,674.1,36.2,674.1,36.2,674.1c1.1,4.9,2.1,9.8,3.6,14.7c0,0.1,0.1,0.2,0.1,0.3c0-0.1,0-0.2-0.1-0.3
	C38.3,684,37.3,679,36.2,674.1c-0.1-1.4,0.9-2.5,1.4-3.7c0.9-2.2,2.7-4,2.9-6.7c0.3-3.2,0.3-6.4,0.3-9.6c0,3.2,0,6.4-0.3,9.6
	c-0.3,2.7-2,4.5-2.9,6.7C37.1,671.7,36.2,672.7,36.2,674.1z M35.2,676.3c0.7,1.4,0.7,3.1,1.3,4.5c1.2,3,1,6.4,2.9,9.1
	c0.2,0.8,0.4,1.7,0.6,2.5v0c0,0,0,0,0,0c-0.2-0.8-0.4-1.7-0.6-2.5c0.1-0.1,0.2-0.1,0.2-0.2c0.1-0.1,0.2-0.3,0.2-0.5
	c0,0.2-0.1,0.3-0.2,0.5c-0.1,0.1-0.2,0.1-0.2,0.2c-1.9-2.7-1.7-6.1-2.9-9.1C36,679.3,35.9,677.7,35.2,676.3
	C35.2,676.2,35.2,676.2,35.2,676.3z M33.9,789.2c0.1-1.9,0.1-3.7,0.1-5.6C34,785.4,33.9,787.3,33.9,789.2c0,0.6,0.3,1.4-0.1,1.8
	C34.2,790.5,33.9,789.7,33.9,789.2z M38.3,744.8c0.9-7.9,3.3-15.7,2.7-23.9c-0.2-1.9,0.5-3.9,0.7-5.8c0.4,0.4,0.5,0.8,0.6,1.1
	c-0.1-0.4-0.3-0.8-0.6-1.1c-0.3,1.9-0.9,3.9-0.7,5.8C41.6,729.1,39.3,736.9,38.3,744.8c-0.6,5.2-1.1,10.5-1.9,15.7
	c-0.9,5.7-1.6,11.5-1.5,17.3c0,0.8-0.3,1.5-0.9,2c0,0,0,0,0,0v0c0.6-0.5,0.9-1.2,0.9-2c-0.1-5.8,0.6-11.5,1.5-17.3
	C37.2,755.4,37.7,750.1,38.3,744.8z M41,878.6c0.1-0.9,0.1-1.8-0.1-2.7c-0.3-1.8-0.4-3.6-0.6-5.4c-0.5-2.8-1.1-5.5-1.6-8.3
	c0.6,2.8,1.1,5.5,1.6,8.3c-0.2-0.2-0.3-0.4-0.5-0.7c0.1,0.2,0.3,0.5,0.5,0.7c0.2,1.8,0.3,3.6,0.6,5.4
	C41.1,876.8,41.1,877.7,41,878.6z M40,963c0,0.3-0.3,0.6-1,0.8c0-0.3-0.1-0.7-0.1-1.1c0,0.3,0.1,0.7,0.1,1.1c0,0.2,0,0.3,0,0.5
	c0-0.2,0-0.3,0-0.5C39.6,963.7,39.9,963.4,40,963z M39.1,968.6c-0.1,0.1-0.4,0.2-0.6,0.2c0-0.2,0-0.3,0-0.4c0,0.1,0,0.3,0,0.4
	c0,0.1,0,0.3,0,0.4c0-0.1,0-0.3,0-0.4C38.7,968.8,39,968.7,39.1,968.6z M38.8,1006.4c0.2,0.2,0.3,0.4,0.4,0.7
	C39.1,1006.9,39,1006.6,38.8,1006.4z M40.1,946.5c0,1.3-0.1,2.7-0.2,4c0,0.5-0.1,1-0.5,1.3c-0.4-0.4-0.4-0.9-0.4-1.4
	c0.2-11.1-2-22.1-2.1-33.2c0,0,0,0,0-0.1c0,0,0,0,0,0.1c0.1,11.1,2.3,22.1,2.1,33.2c0,0.5,0,1,0.4,1.4c0.3,1.9,0.5,3.8,0.5,5.6
	c0-1.9-0.2-3.8-0.5-5.6c0.5-0.3,0.5-0.8,0.5-1.3C40,949.2,40.1,947.9,40.1,946.5z M37,982.3L37,982.3c0,5.2,0,10.3,0,15.5
	c0,0,0,0,0,0L37,982.3c0.4-0.4,0.7-0.9,0.9-1.4C37.6,981.5,37.3,982,37,982.3z M38.9,932.4c0.1,0.8,0.2,1.5,0.3,2.3
	c0.1,0.5,0.2,1.1,0.2,1.7c-0.1-0.6-0.2-1.1-0.2-1.7C39.1,933.9,39,933.1,38.9,932.4z M37.1,852c0.1,0.8,0.3,1.5,0.5,2.3
	c0,0.8,0,1.7,0,2.5c1.6,1.2,0.9,2.6,0.5,4c-0.5-0.6-0.7-1.3-0.7-1.9c0,0.7,0.1,1.3,0.7,1.9c0,0.3,0,0.7,0.1,1
	c0.2,0.1,0.4,0.1,0.5,0.2c-0.1-0.1-0.4-0.2-0.5-0.2c0-0.3,0-0.7-0.1-1c0.4-1.4,1.2-2.8-0.4-4c0-0.8,0-1.7,0-2.5
	C37.4,853.5,37.2,852.8,37.1,852z M37.6,856.9L37.6,856.9c0,0.1,0,0.2,0,0.3C37.6,857.1,37.6,857,37.6,856.9z M36,896.6
	c0.6,5.3,1,10.7,1.4,16C37,907.2,36.6,901.9,36,896.6c0.5-2.9,1.4-5.6,2.3-8.3C37.4,891,36.5,893.7,36,896.6z M36,907.4
	c-0.1-1.1-0.1-2.2-0.2-3.3c0-0.2,0-0.4-0.1-0.6c-0.1-0.6-0.4-1.2-0.6-1.8c0,0,0,0,0,0c0.2,0.6,0.4,1.2,0.6,1.8
	c0,0.2,0.1,0.4,0.1,0.6C35.9,905.2,36,906.3,36,907.4z M39.9,1042.8c0,0.5-0.2,0.9-0.9,1.1c0,0,0,0,0,0
	C39.7,1043.7,39.9,1043.3,39.9,1042.8z M40.3,1025.5c0,0.3,0,0.7-0.1,1c-0.5,5.1-0.2,10.3-0.4,15.4c0,0,0,0,0,0
	c0.2-5.1-0.1-10.2,0.4-15.4C40.3,1026.2,40.3,1025.8,40.3,1025.5z M42.4,1080.7c0-5.5,0-11-0.1-16.4c0-0.6,0-1.2,0-1.9
	c0,0.6,0,1.2,0,1.9C42.4,1069.7,42.4,1075.2,42.4,1080.7z M43,1021.6c0,1.4,0.1,2.8-0.1,4.3c-1.3,0.1-1.2-0.7-1.5-1.7
	c-0.6-1.9,0.5-4.2-1.4-5.8c-0.1-3.1,0.1-6.3-0.7-9.4c0-0.2,0-0.3,0-0.5c0,0.2,0,0.3,0,0.5c-1.4-0.6-0.9-2-1.3-3.1c0,0,0,0,0,0
	c0-1.3-0.1-2.7-0.1-4c0.3-0.8,0.4-1.5,0.3-2.2c0.1,0.7,0,1.4-0.3,2.2c-0.5-0.9-0.8-1.9-0.9-2.9c0.1,1,0.5,2,0.9,2.9
	c0,1.3,0.1,2.7,0.1,4c0.4,1-0.1,2.5,1.3,3.1c0.8,3.1,0.6,6.3,0.7,9.4c0,0.3,0,0.7,0,1c0-0.3,0-0.7,0-1c1.9,1.6,0.8,3.9,1.4,5.8
	c0.3,0.9,0.2,1.8,1.5,1.7c0,7.6,0,15.2,0.1,22.8c0.2,3.2-0.1,6.4-0.3,9.6c0.2-3.2,0.5-6.4,0.3-9.6c0-7.6,0-15.2-0.1-22.8
	C43,1024.4,43,1023,43,1021.6z M43.9,1017.3c-0.2,0-0.4,0-0.5,0c0,0,0,0,0,0c-0.3,1.1-0.4,2.1-0.4,3.2c0-1.1,0.1-2.1,0.4-3.2
	C43.6,1017.3,43.8,1017.3,43.9,1017.3C43.9,1017.3,43.9,1017.3,43.9,1017.3z M45.3,1013.8c-0.2,0.6-0.6,1.1-1.2,1.6v0
	C44.7,1014.9,45.1,1014.4,45.3,1013.8z M46.3,1007.9c0,1.1-0.5,2.1-1.3,3c0,0.2,0,0.4-0.1,0.5l0.1-0.5
	C45.8,1009.9,46.3,1008.9,46.3,1007.9z M46.8,1003.9c-0.2,0.3-0.5,0.7-0.8,1c0,0,0,0,0,0C46.3,1004.5,46.6,1004.2,46.8,1003.9z
	 M47.8,990.7c0.3,2.2,0,5.1-0.7,6.2c-0.1,0.9-0.1,1.7-0.2,2.6c0.1-0.9,0.1-1.7,0.2-2.6v0C47.9,995.8,48.1,993,47.8,990.7z
	 M50.1,785.6c-0.1-2.1-0.2-4.2-0.3-6.2c0,0,0,0,0,0C49.9,781.4,50,783.5,50.1,785.6z M49.8,775.4c-0.3-0.2-0.4-0.5-0.4-0.7
	C49.4,774.9,49.6,775.1,49.8,775.4c0,0.7,0.1,1.3,0.1,2C49.9,776.7,49.8,776,49.8,775.4c0.3-0.2,0.4-0.4,0.5-0.6
	C50.2,775,50.1,775.2,49.8,775.4z M49.4,770.4c-0.3-0.2-0.5-0.4-0.4-0.8C48.9,769.9,49.1,770.2,49.4,770.4c0,0.3,0.1,0.6,0.1,1
	C49.5,771,49.4,770.7,49.4,770.4c0.3-0.2,0.4-0.4,0.4-0.6C49.8,769.9,49.7,770.1,49.4,770.4z M48.7,762c0.1-0.4,0.3-0.9,0.2-1.3
	C49,761.1,48.8,761.6,48.7,762c-0.3,0-0.5-0.1-0.8-0.1c0,0,0,0,0,0C48.2,761.9,48.4,762,48.7,762c0.1,2.4,0.2,4.9,0.3,7.3v0
	c0.2,0.1,0.3,0.1,0.5,0.2c-0.1-0.1-0.3-0.1-0.5-0.2C48.9,766.9,48.8,764.4,48.7,762z M48.1,759.8c-0.1-0.6-0.2-1.3-0.2-1.9
	c-0.4-1.5-0.1-3.1-0.4-4.6l0,0c0.3,1.5,0,3.1,0.4,4.6c0,0,0,0,0,0C47.9,758.5,48,759.2,48.1,759.8c0.6,0.2,0.8,0.5,0.9,0.9
	C48.9,760.3,48.6,760,48.1,759.8z M50.3,638.7c-1.8,1.6-3.5,3.4-5,5.4c-0.4,0.5-1,0.9-1.5,1.3c-0.5-0.4-0.4-1-0.5-1.6
	c-0.2-11.7-0.6-23.4-0.6-35.1c0,11.7,0.4,23.4,0.6,35.1c0,0.6,0,1.2,0.5,1.6c-0.8,2.2-1,4.5-1,6.8c0,0.3,0,0.7,0,1
	c0,0.6,0,1.3,0,1.9c0,4.5-0.2,9,0.7,13.5v0v0c1,0.9,1.8,1.9,2.5,3c-0.7-1.1-1.5-2.1-2.5-3c-1-4.5-0.7-9-0.7-13.5c0-0.6,0-1.3,0-1.9
	c0-0.3,0-0.7,0-1c0-2.3,0.2-4.6,1-6.8c0.5-0.4,1.1-0.8,1.5-1.3C46.8,642.1,48.5,640.3,50.3,638.7z M56.3,492.8
	c1.4,5,2.4,10,3.1,15.1c0.3,2.3,0.5,4.5,0.7,6.8c-0.2-2.3-0.4-4.5-0.7-6.8C58.8,502.8,57.7,497.8,56.3,492.8L56.3,492.8
	c-0.3-1-0.6-2.2-0.7-3.3C55.7,490.6,56,491.8,56.3,492.8z M61.9,616.4c0,0.7,0,1.4-0.9,1.6c0-6,0-12.1-0.1-18.1h0
	c-0.1-2.3,0.1-4.6-0.4-6.8c0.6,2.2,0.3,4.5,0.4,6.8c0,6,0,12.1,0.1,18.1c0,2-0.1,3.9-0.1,5.9c-1.1,0.2-1.3,1.1-1.3,1.8
	c0,0.9-0.2,1.8-0.4,2.6c0.2-0.9,0.4-1.7,0.4-2.6c0-0.8,0.3-1.7,1.3-1.8c0,0.3,0,0.6,0,0.9c0-0.3,0-0.6,0-0.9c0-2,0.1-3.9,0.1-5.9
	C61.9,617.7,61.9,617.1,61.9,616.4C61.9,616.4,61.9,616.4,61.9,616.4z M30.9,287.9C30.9,287.9,30.9,287.9,30.9,287.9
	C30.9,287.9,30.9,287.9,30.9,287.9L30.9,287.9z"/>
</svg>
