<?xml version="1.0" encoding="UTF-8"?>
<svg id="Layer_3" data-name="Layer 3" xmlns="http://www.w3.org/2000/svg" viewBox="0 0 83.85699 1203.01139">
  <path id="_5Sp08k.tif" data-name="5Sp08k.tif" d="m46.0395,390.85842c.03255.29319.06511.58645.09751.87897-.83045,3.15591.22332,6.21538.61233,9.28578.14245,1.12437-.70412,2.77898,1.08423,3.45233.06645.457.1329.914.19941,1.37136-1.19805,2.21493-.62539,4.21699.73447,6.12463.07368.45511.14736.91021.22118,1.36288-.05339.34373-.10691.68989-.16041,1.036-.75732,3.72776-.74649,7.38772.96131,10.89797.21394,1.96867.42787,3.93728.64172,5.90596-.64989.79114-.37645,1.73566-.40333,2.61658-.10294,3.37177-.16529,6.74482-.2428,10.11739-1.23329,2.03568-1.85237,4.14955-.82394,6.47318-.1601,1.34488-.3202,2.68981-.48032,4.03469.12805.15203.25612.30399.38418.45596.15369.85144.1526,1.693-.16131,2.51447-1.49676.95342-.81182,2.45466-.68788,3.62267.52953,4.99007-.01597,9.94284-.91946,14.77368-1.11178,5.94434-1.54675,11.97059-2.67694,17.90108-1.02603,5.38402-.71161,10.89614-1.45273,16.3152-.18811,1.37527-.21927,2.9094.20217,4.19898.66626,2.03886.7492,4.06295.74394,6.14581-.01536,6.08136-.00462,12.16278.01039,18.2442.00204.82898.0456,1.66248.13993,2.48585.55023,4.80185.62072,9.59777-.10941,14.38882-1.6251,7.95214-1.8619,15.89964.07833,23.84091-.66297.43686-.60876,1.12053-.6246,1.78503-.12628,5.29852-.19349,10.59618-.3822,15.89604-.55525,15.59399.18994,31.19678.39732,46.79638.00772.58046-.03658,1.17417.45681,1.61665-.9184,2.53229-1.09854,5.14716-1.02164,7.82226.14776,5.14032-.34159,10.31025.7782,15.40254-.06134.57705-.18443,1.15422-.17115,1.72815.18397,7.94854-.21034,15.86888-.96457,23.78195-.13885,1.45693-.64028,1.92278-1.97614,1.72913-.0329-.50131-.06581-1.00261-.0987-1.50392.69669-.85278.85718-1.58204-.45434-1.97197-.18635-.84003-.37271-1.68012-.55885-2.51996.39773-.25682.53961-.6227.40293-1.06859-1.47703-4.8179-2.47126-9.75358-3.58239-14.66077-.06848-1.42824.89673-2.4643,1.40425-3.67198.94257-2.24288,2.6657-4.01571,2.93297-6.7148.48499-4.89773.25984-9.7769.22924-14.65821-.01115-1.78161-.99575-3.435-2.14406-4.89327-3.73666-4.74533-8.45884-8.32424-13.5098-11.52238-.13032-.3516-.26066-.70326-.39098-1.05486.01034-.48849.07199-.98217.02302-1.46468-.43175-4.25373-1.31934-8.44917-1.38845-12.75404-.07281-4.53734-.37335-9.07108-.5744-13.60634.00337-.47488.00673-.94982.01091-1.4244.86195-2.56745,1.17395-5.12128-.19378-7.63221.10495-.2877.20991-.57534.31486-.86304.42915-.17913.52579-.52535.47507-.94567-.04717-.29667-.09435-.59328-.14152-.88995.08088-.0971.18007-.16887.29683-.21391,4.06965-2.05216,7.40278-5.08418,10.80943-8.04008,4.65617-4.04018,7.40065-8.79113,6.56126-15.22427-.27744-2.12625-.14122-4.32904.01072-6.48233.14144-2.00499-.36925-3.85605-1.29339-5.49711-1.78273-3.16591-3.26998-6.53531-5.77723-9.25417.23236-1.29642-.70115-1.98442-1.49642-2.66595-2.86539-2.45552-5.94253-4.6843-8.11247-7.85913-.26792-.39206-.69647-.38254-1.11871-.2628-.17478-.23595-.34957-.47195-.52325-.70588.45998-.81482-.19569-1.59376-.08047-2.39894,1.093-.36173.84211-1.29825.84906-2.08311.02348-2.64813.05615-5.29797-.01895-7.94414-.02866-1.01018.49402-2.17459-.56114-3.01029.03971-1.34396.07942-2.68798.11913-4.03194.57211-.05944.89538-.35965.94451-.94775.17163-2.05509.4409-4.10701.50088-6.16515.07495-2.57196.14623-5.20892,1.06028-7.56496,1.60545-4.1385,1.71429-8.55817,2.66932-12.80324.76362-3.39423,1.56331-6.90515,1.81374-10.44665.06952-.66316.13905-1.32626.20857-1.98942.53627-.13225.84621-.50759,1.01934-.99889,1.06254-3.01523,2.44639-5.96656,3.07617-9.07053.56568-2.78807,2.16482-5.35692,1.68311-8.39754-1.25841-7.94359-1.71928-15.94736-1.52123-23.9894.01773-.71949.21593-1.51759-.47916-2.08964-.03931-.35081-.07862-.70161-.11795-1.05242.10113-1.03087.20225-2.06168.30353-3.09011,1.79043-.49136.92285-2.20919,1.35447-3.2812,1.87461-4.65574,3.91302-9.34803,4.42341-14.37905.43976-4.3349.60501-8.73992.06221-13.10363-.37419-3.00821-.69247-6.03681-1.69358-8.93034-.43458-1.23124-.04468-2.47999-.07898-3.71898.65607-.0343.51302-.69355.79668-1.01958.50657-.25963.52335-.54824.05132-.86584.01472-.7024.02943-1.40487.04415-2.10727.22673-.10253.2689-.2332.06137-.40201.04897-.34293.09795-.68586.14692-1.0288,1.77298-.4573,1.30358-1.45699.60736-2.5116-.03426-1.04485.28717-2.11356-.21041-3.12722.25439-2.59296.40995-5.18677.06465-7.78473.29634-1.72083-.13908-3.25825-1.16446-4.6478l-.14713-.92315c.62788-.4736.49418-.9995.10595-1.54292-.17185-.94787.36444-1.75513.5167-2.63537.45982-2.6582,1.77492-5.07484,1.96444-7.83209.24902-3.6231-.62492-6.94842-2.04616-10.19911-.06566-3.21462-.56396-6.2888-2.85082-8.78216.06328-2.60693-1.82756-4.61088-2.18619-7.08764.72011-.57393.28647-.77265-.29968-.92169-1.3753-4.5692-2.75061-9.13846-4.12591-13.70765.01219-.4346.02439-.86914.0366-1.30374,1.61803-1.92742,1.05455-3.96511.30389-6.01227.04303-1.49764.08607-2.99521.1291-4.49285,1.41754-2.36604,1.9438-4.8406.91316-7.50466.0454-1.32498.0908-2.6499.1362-3.97488,1.0307-.29753,1.21042-.78962.34743-1.5201.04432-1.49819.08865-2.99637.13296-4.49456,1.2767-.45041,1.12512-1.1713.37942-2.00462.03155-.49899.06309-.99792.09466-1.4969,1.46411-1.51534,1.88948-5.21033.86464-7.51058.03557-1.0017.07116-2.00346.10675-3.00516,1.2739-1.24411,1.77621-5.49204.88543-7.48739.06284-1.49703.12567-2.99411.18849-4.49114,1.00625-.2946,1.22243-.76935.34058-1.4944.2134-2.33437.4268-4.66874.64021-7.00317,1.67051-1.72595,1.0259-3.61571.38946-5.50486.02512-.67195.05025-1.34402.07539-2.01597,1.70389-1.17704,1.08518-2.57501.3788-3.98141.04953-.50436.09905-1.00872.14857-1.51308,2.26181-3.32093,1.55708-6.90625.93365-10.48425.03304-1.16374.06607-2.32759.09913-3.49133,1.23417-.49215,1.14051-1.19645.3219-2.01646.04369-.50119.08737-1.00225.13104-1.50343,1.71609-1.55397,1.08602-3.27125.34755-4.99611.06195-1.33059.12389-2.66131.18521-3.99178,1.57991-.7956,1.37635-2.31283,1.39081-3.66771.0472-4.42059.0177-8.84215.0177-13.81006,2.58932,4.424-.15688,9.17208,2.87007,13.20927,1.9447,2.59357,1.77849,6.41776,1.85346,9.84611.02163.98907-.13714,2.69561,1.67831,2.93375l.14837,4.48357c-.73686.71748-.27618.90509.43437.98211.61928,3.09292.59581,6.24455.85651,9.37031-.319.5101-.28412.90667.35568,1.10917.07472,1.51137.14945,3.02286.22419,4.53423-.55507,1.69361-.83228,3.37257.26368,4.97865-.08078.67268-.12692,1.34182.20092,1.9724-1.58067,1.47267-.53467,3.35645-.79054,5.03639-.94624.66536-.59967,1.67066-.57714,2.52662.09647,3.66576-.51322,7.34927-1.27521,10.80386-1.14543,5.19318-1.36213,10.46258-2.04703,15.65978-.88325,6.70235-.35671,13.57027-.55917,20.3688-.41298,13.86871-.13159,27.75824-.11228,41.63922.00121.86566-.33843,1.86162.58858,2.53315-1.02614,3.47681-.82391,7.05846-.576,10.57427.19755,2.80101.75924,5.65372,2.7397,7.92217.25435.8291.23438,1.66224.03704,2.49696-2.5744,3.48425-2.03983,7.64753-1.95616,11.47783.1126,5.15302,1.47317,10.25953,1.24497,15.47804-.05132,1.17375.13426,2.30141.48348,3.41205.02395.431-.03364.90301.53305,1.06133Zm-11.83144,405.81576c.48338,3.1014,1.39286,6.15017,1.25236,9.33327-.32043,7.25886,1.25341,14.32394,2.18471,21.4546.44754,3.42652.65198,6.84818.36199,10.31202-.20762,2.47974-.12216,4.98405-.16747,7.47741.01641,3.0235.51856,6.06238-.28679,9.05985.00892.84699.01785,1.69394.02679,2.54093,1.61491,1.16081.89852,2.5849.4492,3.97885.02049.33851.04099.67698.06151,1.01549.21439.10949.58933.18617.61943.33338.56265,2.75161,1.08434,5.51157,1.61462,8.26977.19519,1.81051.3011,3.63613.60463,5.42827.58419,3.44925-.94019,6.47577-1.78682,9.63763-.98945,3.6953-2.52616,7.236-3.12626,11.04225.58642,5.59592,1.02184,11.20609,1.51493,16.8079.62327,7.08046.47705,14.19257,1.65425,21.27844.85757,5.16184,1.09805,10.56563.74116,15.89283-.03405.50826-.05333,1.00149-.54082,1.31338.48255,3.33936.82134,6.67897.00131,10.01879.75874.84009.89495,1.5594-.38848,2.00334-.18611,1.31445.65923,2.55005.29648,3.87802.16878.71202-.12726,1.06395-.84407,1.08992-.21148,2.01042-.42297,4.0208-.63445,6.03122,1.08437,2.3571.67081,5.99912-.84915,7.47799l-.01789,15.52396c1.3978,1.07109,1.51027,2.43827.91382,3.96871.04194,1.34012.08389,2.68026.12582,4.02038,1.37426.62419,1.40797,1.82372,1.31948,3.07568.75694,3.10424.55551,6.27629.66651,9.42622,1.86619,1.58641.81433,3.89301,1.38285,5.812.2756.93017.21587,1.79415,1.50051,1.66918.38284-2.82692-.22001-5.71717.54715-8.5194-.67001-.7117-.5931-1.21372.40818-1.45568.06697-.16402.13437-.32851.20178-.49301l-.14507-1.5377c-.63159-1.68866-.93871-3.31169.90978-4.49858l.14535-2.02363c-.71428-.74006-.55337-1.219.43298-1.45162.14837-.05432.29974-.06478.45416-.0314.05832-.31959.11662-.63918.17494-.95876-.03014-.68159-.06027-1.36319-.09042-2.04478-.54291-2.43287-1.19504-4.87987.9018-6.97116.33395-2.51734-.22117-5.07224.32048-7.5808-.06369-.32093-.12738-.64186-.19105-.96279-.22791-.08648-.65349-.16936-.65514-.25996-.0589-3.22945-1.24179-6.42515-.31531-9.6834.04049-.88684-.19635-1.8041.29145-2.64224-.11963-.46844-.24089-.93667-.36215-1.4049-.32283.00323-.65516-.05313-.71518-.41571-.06386-.38572.24016-.50927.56974-.55111-.0189-.32517-.03779-.65034-.05669-.97552-1.99346-.12319-.56814-1.3331-.65529-2.06223.08764-.36597.17528-.73191.26443-1.0981-.08839-1.15739-.17828-2.3146-.2682-3.47177-.53337-.18093-.54076-.52844-.30193-.95388-.84956-4.07457-.87829-8.1764-.40833-12.29482-.45237-2.36281-.9124-4.72492-.6638-7.15279-.99508-.49908-.67329-1.43432-.6745-2.21158-.02816-18.22525-.02827-36.45056-.06734-54.67577-.0024-1.11491.32458-2.1232.57162-3.16903-.52256-2.36101-.48316-4.76315-.63336-7.15843-.16755-2.67205.56794-4.98714,1.85209-7.22309-1.13261-.55138-.98273-1.26496-.25927-2.05106.03172-.27403.06343-.54809.09516-.82212-.14979-1.56327-.29489-3.1253,1.1601-4.25043.6601-6.27004,1.07084-12.547.52192-18.85051-.57295-.21892-.97913-.48745-.3191-1.07314-.94993-10.59673,1.14447-20.94359,2.39645-31.37734.53074-4.42315,1.30116-8.86226,1.22357-13.3617-.01561-.90378-.37947-2.1192,1.11894-2.37276-.02879-.65727-.05745-1.31345-.08613-1.96965-1.19896-2.26052-.60762-4.63282-.43558-6.97894-.12009-2.47889-.24016-4.95775-.36025-7.43664-1.62859-1.16874-1.00758-3.08392-1.15323-4.53618-.37057-3.69487-.58121-7.40915-1.11267-11.09468-.09118-.63231-.18147-1.34723.4386-1.84936.04099-.69371.08198-1.38738.1234-2.08124-.07644-.6404-.15331-1.28073-.2302-1.92101-.5654-.06323-1.00779-.44577-1.02278-.92529-.11636-3.72123-1.93284-7.25413-1.21123-11.05617.03719-.19609.31573-.34623.48192-.51779-.09849-.50936-.19696-1.01879-.29543-1.52815-.65639-.09747-.99354-.33414-.42192-.9674-.04352-.33982-.08706-.67958-.13165-1.01946-1.34245-1.04656-.86613-2.2593-.31926-3.47858.05237-.35428.10473-.70851.15758-1.06267-.0874-.16088-.17526-.32194-.26313-.483-.63552-.0819-1.02901-.27397-.41956-.92236-.03179-.51693-.0636-1.03392-.0954-1.55086-.91922-.27244-1.05676-.75227-.38382-1.4471-.06706-2.1763-.13411-4.3526-.20115-6.5289-1.3273-1.56959-.81269-3.26619-.34223-4.95888-.01138-.3574-.02226-.71565-.03315-1.07384-1.32087-.38022-.74376-1.48152-.84824-2.30245-.12123-.95251.16094-1.9594-.76545-2.92551-.26255,1.94518-.87669,3.91788-.72662,5.8307.63934,8.14872-1.70651,15.93156-2.65165,23.88156-.62396,5.24835-1.11633,10.5183-1.94275,15.73497-.90868,5.73592-1.6096,11.46669-1.4934,17.28299.01516.75889-.28853,1.46163-.90117,1.97856-.0292,3.1069-.01971,6.21535-.11603,9.32054-.02378.76627.51315,1.88955-.85704,2.17819.02365,1.33307.0474,2.66644.07115,3.99978,1.01825-.1079,1.03011.76298,1.11843,1.3298Zm12.91054,200.2715c-.0776.97079-.1552,1.94154-.23281,2.91233.84076,1.87703.51579,3.54525-.89856,5.01814-.05814.3195-.11644.63908-.17476.95867.88134,1.87581.45835,3.53814-.82764,5.05927l-.12096.9638c.85263,1.4475.46918,2.59668-.84891,3.52006-.06709.1643-.13449.32879-.20187.49328.0431.48686.08619.97372.12927,1.46058.00394,3.66211-.22846,7.34329.06488,10.98208.49206,6.10421.35724,12.20603.43207,18.3106.00461.37677.22631.75091.34717,1.12555.49438-.1234.54648-.52271.64428-.93952.82102-3.49975,1.71477-6.98323,2.48497-10.49394,1.17-5.33297,3.57561-10.13343,6.26691-14.80914,2.00013-3.47491,3.85725-7.01274,6.47044-10.14118,2.53515-3.035,4.96949-6.26421,6.80898-9.7459,3.08991-5.84853,4.01204-12.19744,2.83221-18.79265-.78745-4.40164-1.45294-8.82497-2.22038-13.23033-1.35154-7.75849-2.44298-15.57761-4.17671-23.25077-3.12945-13.8504-8.02468-27.19135-12.41386-40.67334-.8589-2.63827-1.31417-5.42836-2.81178-7.83957-.10703,2.0323-.30688,4.06462-.30545,6.09686.00714,10.12783-1.23611,20.15028-2.34855,30.19163-.5562,5.02009-.70165,10.0855-1.04875,15.1293-.05431.7891.2738,1.71021-.65522,2.25121-.46793,4.11861-.43921,8.22043.41036,12.295.10041.31825.20083.63649.30158.95431.09026,1.15675.18016,2.31395.27006,3.47113.5187.25639.83214.57009.3118,1.11668-.08024.68559.49092,1.346.07823,2.04414.01823.3249.03712.65007.05602.97524.04863.32261.09727.64525.14567.96734.12103.46771.24229.93594.36354,1.40417,1.13346.75062.63708,1.78024.47113,2.75328.0611.79096.12219,1.58189.18329,2.37285.61336.46939.6421.97097.08282,1.50493-.01994,1.98527-.03988,3.97055-.05985,5.95527.06366.32041.12735.64134.19102.96227,1.11917,1.70041,1.11875,7.03683-.00066,8.66635Zm-9.13022,8.91688c-.04148-1.3399-.08343-2.68005-.12537-4.02016-.61095-1.25251-1.04936-2.54474-.91391-3.96896.00606-5.17441.01202-10.34906.01799-15.52372-.09987-2.5365.31085-5.01491.85004-7.47826.21059-2.01014.42209-4.02053.63357-6.03095-.07037-.63704.25195-.96865.84522-1.08928.3616-1.32861-.48374-2.56421-.29762-3.87866-.02535-.69804-.27471-1.43963.38891-2.00349.8196-3.33967.48081-6.67928-.00215-10.01886-.43031-.36542-.44625-.86694-.43838-1.36959.17424-11.13087-2.00312-22.11023-2.09995-33.23762-.03798-4.36368-.93356-8.7232-.95327-13.12789-.00354-.7948-.41806-1.58775-.64284-2.38155-1.36573,2.89982-2.44302,5.89479-3.5028,8.92738-1.60803,4.60157-2.15127,9.65951-5.28135,13.67848-.41774.61043-.88497,1.20161-.80058,2.01228.82323,1.77777-.12212,4.98045-1.75646,5.95023-.07853.35279-.15713.7061-.2357,1.0594.74008,1.5789-.17963,4.72605-1.74204,5.96101-.02435.32536-.04874.65108-.07315.97683-1.05845,5.53861-1.95666,11.11369-3.75208,16.48376-.83992,2.56409-.3661,5.36077-1.3925,7.89266.29216.69099.48602,1.35711-.43918,1.73987-.09507.66164-.19072,1.32364-.28635,1.98564.48068,1.06954,1.23843,2.18167-.44818,2.91773-.04761.84659-.09521,1.69373-.14279,2.54087.12029.49527-.06195.82209-.54591.98049-.04328.27818-.08657.55685-.12987.83551.31151.69063.46364,1.34124-.43292,1.72815-.16903.9587-.33857,1.91796-.50813,2.87721.39404,5.60413-.31964,11.26251.82272,16.82996-.01108.16948.04715.31098.17337.4245.91052-.23094,1.14649.49121,1.42449,1.06496,3.07903,6.35411,7.65607,11.71606,11.49256,17.56634,1.24854,1.90395,3.2336,3.64247,3.08991,6.3031,1.55302,3.81058,3.10643,7.62164,4.65985,11.4327,1.32204.37069,1.19166,1.60357,1.4705,2.55796.71785,2.45686,1.37308,4.93203,2.05333,7.39987,1.23916-.22151.88912-1.21143.92084-1.97621.2124-5.12099-.09269-10.24015.38279-15.37973.24298-2.62657-.39678-5.40981-.29653-8.14007-.11063-3.14971.0908-6.32176-.66614-9.426-1.42009-.60457-.90178-2.04151-1.31994-3.07589Zm9.43206-252.57833c.30647,1.46059.0481,3.07901.40192,4.60142.07656.64009.15343,1.28043.23032,1.9207,1.23181.43167.89226,1.32767.64844,2.19534.11469,2.4329.22936,4.86584.34403,7.29874.57548.20558,1.11366.42368.36144,1.07558.07248,1.1786.56616,2.32195.29521,3.52929.85318.42078.80877.91668.12263,1.46627.04914,1.33365.2536,2.66995-.06792,3.99685.11971,2.4784.23978,4.95726.35986,7.43615,1.16193.35169.46802,1.55079,1.00065,2.19028,2.10714-.92273,1.76206-3.19097,2.59356-4.8056,2.22762-4.32565,3.80839-8.98518,5.47779-13.49441,2.7424-7.40744,5.16416-14.98964,7.07472-22.72871,2.41294-9.77403,4.91906-19.4459,4.58386-29.63207-.33768-10.26191-2.00373-20.04534-8.25192-28.63848-3.86665-5.31786-8.79291-9.52252-13.50894-13.97149-1.18711,2.82432-1.17456,5.9867-2.17653,8.79034-2.51545,7.03857-3.35956,14.28824-3.32293,21.6449.02136,4.2909.89095,8.56782.7553,12.88935-.02506.79914.31064,1.68256-.44763,2.34743.02856.65254.05711,1.30514.08566,1.95769.14739.07055.41376.12591.42506.21397.52588,4.09651.79964,8.20432.47303,12.33415-.02697.31547-.05396.63094-.08143.94573.08737.16039.17523.32145.2631.48251.67194.15117.92187.52078.61093,1.1807.03449,1.10881.06898,2.21762.10346,3.32643.56866.29508.6783.64058.11617,1.05968-.03823.32078-.07647.6415-.11525.96172.09794.50875.19641,1.01818.29488,1.52754,1.37107,2.4643.80038,5.27606,1.35051,7.898Zm-13.82287,23.22441c.60066-7.01455,1.16269-14.03539,1.95348-21.02968.52872-4.67637,1.36653-9.32045,2.15239-13.96435,1.09779-6.48715,2.36498-12.88825,2.3824-19.57613.01765-6.77882.98733-13.56423.85278-20.38937-.03776-1.9149-.88091-3.7526-.41532-5.68716-.03208-.50137-.06499-1.00268-.09788-1.50398-.71462-.52755-.48046-1.27402-.45466-1.97215-.18603-.83985-.37239-1.67994-.55876-2.51996-1.92016-2.71838-1.72938-6.11419-2.88743-9.09311-.5576-1.43441-.61362-3.08047-1.28972-4.5244-2.52139,1.91747-4.81764,4.07833-6.82495,6.52554-.57751.70405-.98151,1.52656-2.06275,1.4706-.35532.33262-.71113.66579-1.0669.99901.1383,1.1356-.67718,1.90666-1.26987,2.60248-4.57893,5.37621-7.31882,11.5836-8.76363,18.4459-.14858.7057.20182,2.03336-1.27579,2.0211-.10064.94659-.20149,1.89409-.30232,2.84154.37335.5126.36084.95373-.23723,1.2861-.90976,7.41378-.62416,14.76257,1.20412,22.02707.40157.23094.40032.55611.21584.92321.08305.68544.16639,1.37173.24972,2.05802.44789.23094.45138.57583.24919.97289.24583,1.01049.49208,2.0214.73833,3.03232.43902.23631.44581.57528.22931.96655.0892.34373.17894.68824.26867,1.0327.44105.23192.43257.57644.24155.96575.1102.98864-.04355,2.03477.62335,2.9047.52984.22203.60681.60817.39739,1.09733.02464.8407-.00207,1.69532.616,2.38319.52531.23656.59958.6299.38978,1.1215,1.35226,4.51891,2.34236,9.15933,4.47781,13.41736.65714.21504.69348.63573.38671,1.16914.05562.81067.13809,1.61543.58413,2.32891.64619.18685.71369.60698.46474,1.15394,1.99666,5.55353,4.0122,11.10105,5.97969,16.6656.58454,1.65317,1.11668,3.31428,2.27073,4.68378,1.37019-.28865.83326-1.41192.85704-2.17819.09632-3.10519.08683-6.21364.1164-9.32091-.90714-1.01687-.48915-2.22958-.39434-3.33686Zm14.01938-548.1257c.07518,1.51112.14991,3.02261.22464,4.53398.99199,1.61195.80972,3.28566.26307,4.97878-.08016.67256-.12631,1.3417.2033,1.97215,1.53393,1.58619.57243,3.61449.86217,5.41234.48486,3.00858,1.06673,6.05762.73318,9.1517.07917,1.65638.15835,3.31275.2375,4.96913.06593.04828.17867.08672.19108.14611.81693,3.90744,1.25927,7.85284,1.18125,11.84981.06891,1.17887.1378,2.35781.20667,3.53668,2.05666,5.89979,2.12892,12.09662,2.58856,18.2149.29084,3.87137.92984,7.7403.5506,11.65561-.10469,1.08098-.1369,2.15079-.64394,3.13802.11064.43399.2213.86798.33187,1.30014.22658-.02942.65171-.05737.65166-.08453-.00487-2.6488,1.18234-4.97749,1.91156-7.43643,2.89387-9.75792,5.48122-19.6061,7.70547-29.53289,2.12062-9.46436,3.50629-19.08178,5.29329-28.61419,1.78887-9.54242.42159-18.09601-5.79507-25.74404-2.02704-2.49384-3.79972-5.19824-5.63357-7.84442-2.2958-3.31288-4.45441-6.71327-6.02329-10.44641-1.98118-4.71427-4.24117-9.32002-5.45054-14.33236-.7453-3.08902-1.58159-6.15618-2.37701-9.23311-.71016,1.40969-.32484,2.85722-.15978,4.30145.42308,3.70164.49022,7.41623.37263,11.13654.03644,1.45449.07287,2.90885.10932,4.36334,1.4756,1.22989.62738,2.79411.6096,4.23884.07315,2.46601.14628,4.93215.2194,7.39816.66995,3.13979,1.35432,6.27849.68156,9.51447-.0855.32566-.17101.6512-.25673.97674.61908,3.09268.59562,6.24431.85631,9.37007.49907.24803.88108.53353.35523,1.10942Zm-9.16569-38.88495c.07882-1.06194-.12601-2.14499-.20022-3.21828-.82412-.01208-.93769,1.28812-1.89671,1.02629-.84003,1.38272-.31581,3.08462-1.04884,4.49309.01994.56515-.08781,1.03838-.78313,1.08806-.2251.52584-.4503,1.05254-.67547,1.57911-.59673,2.86576-.98338,5.82442-3.47446,7.85089-.34012.51669-.68054,1.03362-1.02098,1.55067.06822,1.06267-.08659,1.96043-1.45079,1.96409.00023-.00049-.04213.05517-.04213.05517.10457,1.42239-.63406,2.34163-1.79488,3.00821-2.24919,3.18764-4.19658,6.65749-6.83235,9.48554-2.64845,2.84172-3.50674,6.29118-4.74691,9.67705-.03808.22862-.07614.45712-.11344.68501-.39475.27-.54158.66316-.55235,1.12333.10047,1.06548.58337,2.18417-.43001,3.09378-.51655,2.13547-.46723,4.27192-.00253,6.40861,1.13074,1.40298.49638,3.0004.49879,4.5269.89542,5.17157,1.79112,10.34412,2.6868,15.51667,2.12647.89258,1.41793,2.96061,1.73306,4.51061.8377,4.1208,1.72586,8.23087,2.58586,12.34062,1.02314,4.88943,2.84513,9.64678,2.92215,14.72565.08248.33073.16539.66212.24829.99346.64248.51266,1.01211,1.12974.75866,1.98436.85721,4.58061,2.84855,8.80376,4.17841,13.23588.16729.00372.33456.00738.50285.01483.0132-.43094.0254-.86548.0376-1.30008-.05297-2.012-.52166-4.04513.3046-6.01233.04233-1.49758.08537-2.99515.1284-4.49279-.2071-2.56391.31437-5.03907.91357-7.50472.04499-1.32492.09039-2.64984.13578-3.97482-.09576-.55538-.18657-1.10966.34801-1.52022.04374-1.49806.08807-2.99625.13238-4.49443-.0657-.70478-.29535-1.44076.37988-2.00474.03109-.49887.06264-.99779.0942-1.49678.13388-2.52143.25605-5.04414.86534-7.51058.03487-1.0017.07046-2.00346.10605-3.00516-.21026-2.55585.40227-5.01417.88616-7.48751.0621-1.4969.12494-2.99399.18776-4.49102-.08058-.54287-.17746-1.08946.34122-1.49477.21276-2.334.42616-4.66837.63956-7.0028.05567-1.84032-.53714-3.72667.38984-5.50498.02474-.67183.04987-1.3439.07501-2.01585.06833-1.33291-.42465-2.71929.37944-3.98165.04889-.50411.09841-1.00847.14793-1.51283.75195-3.45557-.08308-7.0526.93374-10.48449.03295-1.16349.06598-2.32735.09904-3.49109-.08621-.70344-.29424-1.42629.32261-2.01658.04297-.50106.08665-1.00213.13032-1.50331.05774-1.66956-.49016-3.38148.34835-4.99623.06116-1.33047.12309-2.66119.18503-3.99178-.27515-4.82254.0818-9.62347.43852-14.42806Zm8.2831,362.0545c2.63046-4.32739,6.47249-7.45345,10.10116-10.78665,1.35458-1.2443,1.80877-3.44232,3.9877-3.80033.07716-.36014.15494-.72132.23273-1.08257-.99763-.65144-.56993-1.66565-.54524-2.50428.25128-8.53706-.07925-17.07088-1.12975-25.52213-.62846-5.0561-1.6812-10.10457-3.06241-15.06418-.46195-1.6587-1.10585-3.5631-.23828-5.39537-.03036-.35367-.06071-.70729-.09107-1.06096-2.20862-.20055-1.64107-2.2961-2.11205-3.47284-1.45204-3.6278-2.70387-7.36075-3.22289-11.27722-.10471-.79017-.49653-1.64869.50106-2.18728-1.61979-3.84031-2.02737-7.92797-2.45096-12.01234-1.49737.95367-.81243,2.45491-.68849,3.62291.52953,4.99007-.01597,9.94284-.91946,14.77368-1.11178,5.94434-1.54675,11.97059-2.67694,17.90108-1.02603,5.38402-.71161,10.89614-1.45273,16.3152-.18811,1.37527-.21927,2.9094.20217,4.19898.66626,2.03886.7492,4.06295.74394,6.14581-.01536,6.08136-.00462,12.16278.01039,18.2442.00204.82898.0456,1.66248.13993,2.48585.55023,4.80185.62072,9.59777-.10941,14.38882,1.73855-.70777,1.97016-2.57721,2.7806-3.91037Zm9.25446-65.21605c.03072.35325.06108.70686.09144,1.06053,1.31214,2.32509,1.37705,5.00929,2.14721,7.49392,1.96354,6.33451,2.63884,12.90851,3.13064,19.47177.40883,5.45622.88435,10.93075.56564,16.4206-.08033,1.38381-.18253,2.76622-.27421,4.14778,1.79345-2.30898,3.19447-4.77396,4.48663-7.45132,2.10429-4.36004,3.03022-8.94072,3.84236-13.52358.94045-5.30694.69345-10.73209.27046-16.14846-.81478-10.4339-3.5077-20.41677-6.60701-30.33386-1.72807-5.5294-3.59413-11.00447-5.59961-16.44305-1.71088-4.63957-2.61396-9.596-4.54452-14.12663-.81086-1.903-1.09012-4.35571-3.0666-5.72982-.64989.79114-.37645,1.73566-.40333,2.61658-.10294,3.37177-.16529,6.74482-.2428,10.11739.3033,2.12631.10649,4.24866-.05023,6.37138.42207,1.47805-.0864,2.80919-.65181,4.13136-.07246.15392-.14495.3079-.21772.46145.15339.85108.15229,1.69263-.161,2.51386.42358,4.08437.83117,8.17203,2.45096,12.01234,2.47298,5.40001,3.60153,11.18384,4.83351,16.93777Zm-23.1347-19.54464c1.17263-3.75175,1.94193-7.61659,1.23022-11.69498-.94207-5.39836-.50001-10.89736-.62051-16.35493-.01887-.85419.55463-2.1312-1.04193-2.34993-.4623-.00128-.92459-.00256-1.38692-.00452-.04909.16283-.09815.32633-.14721.48977-.10523.16997-.21044.33994-.31573.50942-.45303.89014-.8209,1.80627-.8445,2.82524.29428.58364.23615,1.03344-.46904,1.23685-1.17608,2.30617-1.97361,4.74417-2.51814,7.26981.28203.58809.21474,1.03093-.49998,1.20371-2.17353,5.1806-3.69657,10.58354-5.41603,15.91959.22435.48129.15311.86841-.35468,1.11564-.208.45816-.41689.91674-.62579,1.37539.20112.62142.33675,1.22751-.38127,1.63325-.55755.67335-.61777,1.49886-.70431,2.3163.27486.55361.18201.96209-.45515,1.15489-.41065.54848-.48399,1.1898-.50297,1.84594.23607.50283.18918.91797-.36354,1.1757-.4177,1.67127-.8362,3.34297-1.25471,5.01466.44813.37485.34801.65688-.1475.8714-.2318.68025-.46372,1.36105-.69563,2.04179.20436.67769.42017,1.3569-.2557,1.916-.08938.51821-.17896,1.0374-.26852,1.55659.41468,1.76178.13696,3.41462-.78066,4.96608-.05458.35001-.10932.7007-.16405,1.05144.00712,1.87212.84818,3.82462-.53455,5.56211-.64638,3.86966-.62446,7.7417-.03075,11.61539,2.01276.4465.89118,1.90215.95736,2.97446-.24699,4.24439,1.03868,8.15268,2.63586,11.99244,1.79048.78443,2.14891,2.64831,3.05283,4.09242.59095.94409.87943,2.13645,2.23343,2.33602.49104-3.13174.04634-6.28551.22643-9.42365.05072-.8844-.26326-1.83923.41577-2.62762.03884-1.34372.07855-2.68774.11826-4.0317.08103-5.1427-.81086-10.47613.72054-15.37123,1.92832-6.16375,2.12249-12.72554,4.69316-18.6727.55585-1.28586-.08314-3.06613,1.57511-3.88443.06944-.66255.13897-1.32565.20849-1.98881.49867-3.33631,1.71223-6.4581,2.71232-9.65783Zm11.17857,112.51099c3.14756,1.73029,4.89662,5.03505,7.87935,6.96808,2.84017,1.84069,5.23163,4.32684,8.30746,5.84047.06229-.07891.14094-.1364.23636-.17101-1.85478-18.33776-1.42596-36.66032.36736-54.97482-2.17893.35801-2.63312,2.55603-3.9877,3.80033-3.62867,3.3332-7.4707,6.45926-10.10116,10.78665-.81044,1.33316-1.04205,3.20259-2.7806,3.91037-1.6251,7.95214-1.8619,15.89964.07893,23.83993Zm6.48915-308.80825c-.33595-3.03616-.70042-6.06958-.99427-9.10977-.06729-.69648-.26557-1.53364.61226-1.98375-.07815-1.65638-.15732-3.31275-.2365-4.96913-1.6033-1.89562-.9969-4.27973-1.40668-6.43741-.20454-1.07707.39762-2.39082-.98181-3.09011-.94541.66536-.59885,1.67066-.57632,2.52662.09647,3.66576-.51322,7.34927-1.27521,10.80386-1.14543,5.19318-1.36213,10.46258-2.04703,15.65978-.88325,6.70235-.35671,13.57027-.55917,20.3688-.41298,13.86871-.13159,27.75824-.11228,41.63922.00121.86566-.33843,1.86162.58858,2.53315,1.30868-1.15263,2.02118-2.51929,2.44135-4.29572.73801-3.1202,1.96759-6.12414,2.99095-9.17684,1.41729-4.22785,2.82641-8.45845,4.26134-12.68026.17647-.51919.20886-1.18736.92913-1.3536.13017-.56234.26042-1.12565.39074-1.68708-.11057-.43216-.22123-.86615-.33187-1.30014-1.05944-.45682-.69433-1.41097-.70495-2.18143-.09486-6.88208-.92506-13.68599-1.91717-20.48849-.4645-3.18483.10498-6.46817-.49879-9.6787-.0329-.17498.40453-.43845.62436-.66029-.06753-1.17851-.13643-2.35744-.20532-3.53631-.55896-.04968-.92523-.30503-.99134-.9024Zm-23.99125,270.65323c-.96227-.87817-1.62105-2.15579-3.06292-2.43745-.44195.49972-.25769,1.09453-.25064,1.66437.03885,3.13784.82038,6.22716.98311,9.30214.39343,7.43466.27422,14.90422.15043,22.35621-.10962,6.59994-.50416,13.19518-.77364,19.79389,4.06966-2.05216,7.4028-5.08418,10.80945-8.04008,4.65617-4.04018,7.40065-8.79113,6.56126-15.22427-.27744-2.12625-.14122-4.32904.01072-6.48233.14144-2.00499-.36925-3.85605-1.29339-5.49711-1.78273-3.16591-3.26998-6.53531-5.77723-9.25417-2.79517-1.65302-4.98836-4.01949-7.35714-6.1812Zm11.04764,315.70443c-.00752-.84693-.01644-1.69388-.02537-2.54087-.75353-3.04648-1.32772-6.08725.28771-9.05902.04439-2.49418-.04107-4.99849.16655-7.47823.29-3.46384.08555-6.8855-.36199-10.31202-.9313-7.13066-2.50514-14.19575-2.18471-21.4546.1405-3.18309-.76897-6.23186-1.25236-9.33327-.08833-.56682-.10018-1.4377-1.11853-1.32944-.64198.17449-.93077.64079-1.05902,1.25458-1.49924,7.17506-2.35264,14.43178-2.62723,21.75097-.27607,7.35931.16758,14.70651.73212,22.0362.46398,6.02436,1.67132,12.02296,1.72079,18.03974.06136,7.45934,2.11219,14.68527,1.84126,22.19247-.13716,3.80036,1.03937,7.68986,1.28256,11.58103.32681.06771.36589.17931.05228.34202.16012,1.2277.32049,2.45805.48087,3.68837.16735.10891.33469.21782.50241.32725.60047-3.80573,2.13718-7.34644,3.12663-11.04173.84662-3.16186,2.371-6.18838,1.78682-9.63763-.30353-1.79214-.40944-3.61776-.60463-5.42827-2.00617-2.53986-2.21531-5.54709-2.23548-8.60315-.01908-.33851-.03959-.67698-.06007-1.01549-1.08204-1.22046-.50704-2.62927-.45062-3.97891Zm7.12256,13.06005c-1.28459,2.23593-2.02008,4.55101-1.85253,7.22306.1502,2.39528.1108,4.79742.63375,7.15785,1.58042.78937,1.4689,2.53775,1.81469,3.81949.73448,2.72234,2.467,5.17542,2.29772,8.14164.27886-.01434.55774-.02868.83637-.04464.45876-5.71447.96396-11.42406,1.36724-17.14082.86114-12.20761,3.03415-24.27679,3.71672-36.50744.66438-11.90492.77584-23.80023.14967-35.70482-.06634-1.26142-.1954-2.49799-1.05186-3.52038-.90477-1.44372-1.51552-5.21747-1.15482-7.14738-.27119-.14077-.54546-.28874-.81962-.43564-1.49842.25355-1.13456,1.46898-1.11895,2.37276.07759,4.49944-.69284,8.93855-1.22357,13.3617-1.25198,10.43374-3.34638,20.78061-2.39645,31.37734.4627.25053.53917.61736.32095,1.07274.54707,6.30391.13633,12.58087-.52376,18.85091-.41205,1.40902.39364,3.15118-1.16084,4.24894-.03098.27552-.0627.54958-.09441.82361,1.39565.51763.2004,1.36401.25972,2.05109Zm15.51914-277.79933c.97107,2.51502.57025,5.16046.73657,7.75196.8948.14739.91621.82166.91673,1.5132.00371,4.99892.00903,9.99783.01367,14.99675.00064.68678-.02261,1.3608-.87066,1.57997-.04941,1.96294-.09882,3.92593-.14823,5.88887-.11226,2.49488.3029,5.05165-.8688,7.42105,3.17833-.58687,5.48325-2.91685,8.2467-4.31958,3.78694-1.92229,7.22344-4.64829,10.53498-7.36533,4.03316-3.30915,7.26674-7.04259,3.20377-12.17633-.76438-.96581-1.67394-1.84673-2.63334-2.62219-2.62993-2.12583-5.13019-4.51116-8.03778-6.16936-3.69901-2.10959-6.56524-5.56431-10.85767-6.67159-.09542.0346-.17407.0921-.23593.1726Zm-37.98209,2.70098c-3.54541.83405-6.53429,2.87193-9.35019,4.95296-2.83936,2.0983-5.87872,3.90115-8.60931,6.1961-3.7051,3.11398-4.2304,7.17296-.8764,10.80978.90546.9818,2.46185,1.5478,2.38382,3.26546.06965.14495.18237.23863.33761.28111,1.61988-.52718,2.09202.34592,2.13043,1.74744.42214.58498.9727.95788,1.70567,1.02776.08213-.3483.34333-.55782.623-.35923.16718.11864.1419.50851.20236.77643.09174.15093.22579.23802.40134.26127,1.83685-.25548,3.01849.53451,3.61067,2.26431.0764.13238.19119.20354.3438.21361,2.15635-.75068,3.15096,1.35006,4.74546,1.98417,1.18334.47055,1.97319,1.80792,3.47304,1.70001-.06007-3.39624-.68661-6.72865-1.09644-10.08736-.6163-5.05116-.22612-10.13375-.24771-15.20297-.00197-.4628.39077-.69954.80073-.84821.00221-.47531.00557-.95025.00894-1.42513-.96506-2.45942.12183-5.07819-.58683-7.55751Zm25.5933,79.47468c.26701.09625.53402.19249.80035.28685.10619-.81641.13385-1.6507.33221-2.44227,1.863-7.43514,4.49918-14.64557,6.27789-22.11502,1.38424-5.81288,3.09403-11.54466,3.75532-17.50945-.25125.04596-.5025.09197-.75375.13793-4.76184,3.28956-9.44652,6.66176-12.90679,11.429-.37694.51937-.96587.88483-1.4567,1.32193-.91864,2.5326-1.09879,5.14746-1.02188,7.82257.14776,5.14032-.34159,10.31025.77983,15.40114,1.79464,1.59541,2.92285,3.68407,4.19352,5.66733Zm-23.32504-41.58502c.83518,3.97531,1.5266,7.9901,2.54239,11.92103,1.34492,5.20459,2.7496,10.39459,4.28575,15.55396,1.37815,4.62876,3.58478,9.07871,3.70141,14.04949.4002-.02948.80038-.05896,1.19886-.0899-.0702-1.42971.89501-2.46577,1.40253-3.67345.94257-2.24288,2.6657-4.01571,2.93297-6.7148.48499-4.89773.25984-9.7769.22924-14.65821-.01115-1.78161-.99575-3.435-2.14406-4.89327-3.73666-4.74533-8.45884-8.32424-13.5098-11.52238-.21288.00995-.42575.01984-.63927.02752ZM41.9998,113.43095c0,2.26193-.00031,3.98519.00006,5.70858.00125,6.11676-.02029,12.23388.03036,18.35015.00715.86334-.56614,2.09495.94203,2.43525.48502-.85931.23889-1.79394.25007-2.69341.12306-9.90323.22661-19.80683.33546-29.71031-.77666-2.41096-.73932-4.82046.01118-7.22276.08918-.89715.25715-1.80017.25814-2.70342.01591-14.43526.0153-28.8704-.00148-43.30566-.00105-.90326-.16652-1.80627-.25548-2.7094-.64992-1.46962-.65413-1.67932-.06613-3.28126-.11373-4.34857.07226-8.71533-.55847-13.04718-.77489.01306-1.54977.02612-2.32583.03772-.20764,3.98019-.53267,7.95977-.60088,11.94374-.37904,22.13772-.20687,44.2763.03591,66.41414.00839.76496-.40848,1.68824.51542,2.26913,1.24653-.1527.56729-1.35293,1.42964-2.4853Zm-1.39591,19.38865c-.01631,7.37045-.0688,14.74103-.10572,22.11148.97473,3.54186.52598,7.10985.16411,10.67173-.01342.13183-.39936.22569-.61169.33726-.09396.65791-.18791,1.31607-.28187,1.9741.84714,1.02739,1.31165,2.02732-.20704,2.88322-.05316,1.04033-.1059,2.08262-.15865,3.12478.90712,2.02549.63064,3.8718-.83793,5.53794-.66045.7071-.61494,1.6089-.68385,2.4792,1.12319,1.36148.25647,2.89421.37155,4.34137.07245,1.07231.27727,2.15537.19845,3.2173-.35672,4.80459-.71367,9.60552-.43913,14.42818,1.57991-.7956,1.37635-2.31283,1.39081-3.66771.0472-4.42059.0177-8.84215.0177-13.81006,2.58932,4.424-.15688,9.17208,2.87007,13.20927,1.9447,2.59357,1.77849,6.41776,1.85346,9.84611.02163.98907-.13714,2.69561,1.67831,2.93375-.05891-1.67859-1.01571-3.38538.15793-5.02528-.07295-2.46601-.14608-4.93215-.21923-7.39816-1.56414-1.21586-.68422-2.78533-.61118-4.23823-.03487-1.4551-.0713-2.90946-.10776-4.36395-.06607-.04968-.17886-.08959-.19157-.1505-1.3022-6.24333-2.06525-12.5184-1.08245-18.89296.07676-2.80937-.24733-5.58249-.66951-8.35512-.14123-.92742-.46104-1.94444.2504-2.82292-.12556-7.08495-.25119-14.17503-.37687-21.26547-1.50817-.34031-.93487-1.57191-.94203-2.43525-.05065-6.11627-.02911-12.23339-.03036-18.35015-.00037-1.72339-.00006-3.44666-.00006-5.70858-.86235,1.13237-.18311,2.3326-1.42964,2.4853.01292,5.63449.04621,11.26886.03373,16.90335Zm-10.13408,194.41855c1.19149,8.22031,3.18335,16.25392,5.19885,24.29699.57552,2.29665,1.95337,4.38208,1.83649,6.85358.34112-.00061.68225-.00122,1.02387-.00177-.17133-.94787.36496-1.75513.51722-2.63537.45982-2.6582,1.77492-5.07484,1.96444-7.83209.24902-3.6231-.62492-6.94842-2.04616-10.19911-.82577-.19512-.79266-.90661-.95202-1.52962-.6194-2.42177-1.26552-4.83663-1.90024-7.25327.06471-2.6062-1.82613-4.61015-2.18476-7.0869-.40255-.20854-.4697-.52731-.30147-.9223-1.37351-4.56859-2.74882-9.13784-4.12513-13.7107-.16829-.00745-.33556-.01111-.50285-.01483.70206,6.66231.50801,13.38632,1.47175,20.03539Zm9.12684,725.39098c.62034,8.8633.21255,17.75122.56582,26.62294,1.30313,1.53883,1.14832,3.11471.11987,4.71332-.27697,5.70381.01126,11.40015.20936,17.09761.62352.3868.51466.79136.02909,1.20206.1052,1.42176.21049,2.84648.31578,4.2712,1.2751-.33521,1.10837-1.36254,1.14235-2.32091.03385-.95509.13221-1.90787.2023-2.86168.07623-1.40565.21659-2.8112.2185-4.21696.01495-10.96457.07945-21.92996-.03336-32.89345-.05383-5.23118.87974-10.41475.54648-15.64679-.01788-7.58362-.03576-15.16724-.05416-22.75075-1.28514.12508-1.22542-.7389-1.50101-1.66907-.56852-1.91899.48334-4.22559-1.38321-5.81221-.10026,2.73026.53951,5.5135.29653,8.14007-.47548,5.13958-.1704,10.25874-.38279,15.37973-.03172.76478.31833,1.7547-.92084,1.97621.43722,2.90748.65511,5.8307.6293,8.76867Zm3.36076-703.61908c.19755,2.80101.75924,5.65372,2.73958,7.92205.83687-1.03521,1.28162-2.25045,1.6364-3.51275,2.0204-7.18846,3.91205-14.40194,5.18776-21.77367,1.18771-6.86316,1.5552-13.77375,1.63503-20.71631-.72028.16625-.75267.83441-.92913,1.3536-1.43493,4.22181-2.84405,8.45241-4.26134,12.68026-1.02336,3.0527-2.25295,6.05664-2.99095,9.17684-.42017,1.77643-1.13267,3.14309-2.44135,4.29572-1.02614,3.47681-.82391,7.05846-.576,10.57427Zm-2.19032,766.93526c.43112,27.75735.14497,55.51621.23296,83.27414.00285.89941-.22878,1.83374.28873,2.68149.38693-.01716.77385-.03433,1.15936-.05049.65342-.90159.3489-1.93511.3507-2.90746.04943-26.81911.10868-53.63828.09097-80.45739-.00374-5.65263.51029-11.30105.10654-16.95477-.27129-.05917-.54257-.11834-.81449-.17733-.07071.95397-.16907,1.90676-.20292,2.86184-.03399.95837.13275,1.9857-1.14235,2.32091-.63593,3.13067-.11817,6.2756-.06949,9.40905Zm-3.92538-716.53208c-.62477,2.71526-1.11633,5.45866-.69444,8.26968-.48978,1.60041.40671,3.49139-1.025,4.88973-.15557,1.68891-.31166,3.38233-.46775,5.07575.31901.40878.40845.78248-.16002,1.05181-.40186,3.00534-.6718,6.01996-.3889,9.06088,1.79043-.49136.92285-2.20919,1.35447-3.2812,1.87461-4.65574,3.91302-9.34803,4.42341-14.37905.43976-4.3349.60501-8.73992.06221-13.10363-.37419-3.00821-.69247-6.03681-1.69358-8.93034-.56015,3.77043-.55032,7.60841-1.41041,11.34637Zm8.39933,527.81222c-.39077,4.84722-.46384,9.69439-.83492,14.5302-.06746.8793-.49579,1.7309-.75591,2.59488-.24698,2.42744.21305,4.78955.66339,7.15218.92901-.54101.60091-1.46212.65522-2.25121.3471-5.0438.49255-10.10921,1.04875-15.1293,1.11244-10.04135,2.35569-20.0638,2.34855-30.19163-.00143-2.03224.19842-4.06456.30496-6.09808.05374-.56216.09328-1.12095-.2403-1.62284-.27863.01596-.55751.0303-.83637.04464-.58466,10.33835-1.52203,20.65858-2.35337,30.97118Zm-1.80657,171.40168c.1462-10.80586.24641-21.61234.39372-32.41819.04757-3.49042.19688-6.97941.29967-10.46906-.21984-1.3822-.63264-2.77957.31915-4.07004.24791-.90013.47646-1.79887-.11138-2.66375-.47416-.13434-.94831-.2687-1.4226-.40633.33308,5.22876-.6005,10.41232-.54666,15.6435.11281,10.96349.04831,21.92887.03336,32.89345-.00191,1.40575-.14227,2.81131-.21787,4.21679.27192.05899.5432.11816.81449.17733.61401-.89564.42493-1.92964.43812-2.9037Zm12.88408-605.8348c1.3812,4.95961,2.43395,10.00808,3.06241,15.06418,1.0505,8.45125,1.38103,16.98507,1.12975,25.52213-.02468.83862-.45239,1.85284.54469,2.50465.63667-.04382.56097-.53292.59415-.95226.09168-1.38156.19388-2.76397.27421-4.14778.31871-5.48985-.15681-10.96438-.56564-16.4206-.49181-6.56326-1.1671-13.13726-3.13064-19.47177-.77016-2.48463-.83507-5.16883-2.14721-7.49392-.86757,1.83227-.22367,3.73668.23828,5.39537Zm-25.1574-17.34161c1.06254-3.01523,2.44639-5.96656,3.07617-9.07053.56568-2.78807,2.16482-5.35692,1.68311-8.39754-1.25841-7.94359-1.71928-15.94736-1.52123-23.9894.01773-.71949.21593-1.51759-.47916-2.08964-.74726.2888-.31863,1.58607-1.37801,1.60792-.20649.61843-.41291,1.2363-.61932,1.85418.53229.16405.4744.61544.49937,1.02629,1.59639.21867,1.02289,1.49568,1.04176,2.34987.1205,5.45756-.32156,10.95656.62051,16.35493.71171,4.07839-.05759,7.94323-1.23022,11.69498-1.00009,3.19973-2.21365,6.32151-2.71232,9.65783.53627-.13225.84621-.50759,1.01934-.99889Zm3.71944,423.92828c.30666.75648.47509,1.53486.37166,2.35533.22315.79303.63767,1.58598.64121,2.38078.01971,4.40469.91528,8.76421.95327,13.12789.09684,11.12739,2.2742,22.10675,2.09995,33.23762-.00787.50265.00807,1.00417.43879,1.36981.48749-.3119.50677-.80512.54082-1.31338.35689-5.3272.11641-10.73099-.74116-15.89283-1.1772-7.08587-1.03098-14.19797-1.65425-21.27844-.49309-5.60181-.92851-11.21198-1.51529-16.80842-.16771-.10943-.33506-.21834-.50241-.32725-.21087,1.04964-.42174,2.09925-.63259,3.14889Zm11.18348-509.57813c.0591-3.06588.11824-6.13104.17738-9.19625-.204-1.60328-1.02083-3.26277.43216-4.71311.2676-2.81773.57624-5.63657-.05385-8.44948-1.20131-.77881-.65837-1.80688-.39808-2.79454-.1945-1.73621.21358-3.52862-.48752-5.21832-2.5744,3.48425-2.03983,7.64753-1.95616,11.47783.1126,5.15302,1.47317,10.25953,1.24497,15.47804-.05132,1.17375.13426,2.30141.48348,3.41205.18588.00146.37176.00293.55762.00378Zm-1.38999,298.25022c-2.21647,8.80041-2.66918,17.62132-1.39877,26.58651.26557,1.87407.04438,3.81711.04653,5.72793.0099.3577.02078.71595.03165,1.07414.18037-.01471.36075-.02936.54099-.04382.75813-.66463.42243-1.54805.44749-2.34719.13565-4.32153-.73395-8.59845-.7553-12.88935-.03663-7.35666.80748-14.60633,3.32293-21.6449,1.00198-2.80364.98942-5.96601,2.17621-8.78985-.15188-.38333-.30344-.76716-.45431-1.14915-.26634-.09435-.53334-.1906-.80035-.28685-.43948,4.72605-2.00905,9.20455-3.15706,13.76252Zm-22.04068-93.31068c.10325-.28861.2082-.57625.31315-.86395-.20288-.15917-.40575-.31834-.60925-.47702-2.57493.58992-4.75452,2.07694-6.93067,3.40516-3.54565,2.16397-6.9878,4.51122-10.3391,7.00183-2.80155,2.08201-5.20684,4.27405-5.06123,7.94823.15298,3.85959,2.49722,6.46536,5.77947,8.28353.07803-1.71765-1.47836-2.28365-2.38382-3.26546-3.354-3.63683-2.8287-7.69581.8764-10.80978,2.73059-2.29494,5.76995-4.09779,8.60931-6.1961,2.8159-2.08103,5.80478-4.11891,9.35019-4.95296.11768-.10497.25011-.12914.39556-.07348Zm15.9369-233.88781c-.04862-.30729-.09766-.61501-.14671-.92273-.17252,0-.34505,0-.51751.00031-1.56945,7.87121-.80485,15.76995-.25706,23.66368.01818.26194.34257.50265.52413.75404.65607-.0343.51302-.69355.79668-1.01958.01696-.28916.03393-.57833.0511-.86664.01493-.70161.02964-1.40408.04436-2.10648-.11006-.15416-.08982-.28861.06105-.40274.04929-.3422.09827-.68513.14724-1.02806-.45107-.78126-.20732-1.60841-.15981-2.42256-.09733-1.12132-.68055-2.32723.558-3.21614.25316-2.59308.40871-5.18689.06341-7.78485-1.40355-1.29495-1.4399-2.93278-1.16489-4.64823ZM42.75478,12.24326c-.57171-.17345-1.14342-.34678-1.71484-.52279-.27529,7.85174-.58643,15.70531-.42023,23.56877.77607-.0116,1.55094-.02466,2.32583-.03772.15075-7.67121.07434-15.34047-.19076-23.00827Zm-25.40913,254.75042c1.72259,6.22002,2.99534,12.54538,4.68099,18.76839.47991,1.77173.35099,3.77445,1.78605,5.22699-.07702-5.07887-1.89902-9.83622-2.92215-14.72565-.86-4.10976-1.74816-8.21982-2.58586-12.34062-.31512-1.55.39341-3.61803-1.73306-4.51061.23438,2.5337.10563,5.16803.77402,7.5815Zm27.44083,780.75636c-.12087-.37464-.34257-.74877-.34717-1.12555-.07483-6.10457.06-12.20638-.43207-18.3106-.29334-3.63878-.06094-7.31996-.06488-10.98208-.17893-.00148-.35784-.00296-.5369-.00491-.76729,2.80177-.16445,5.69203-.54678,8.51884.0184,7.58351.03628,15.16713.05432,22.75403.47431.13762.94846.27198,1.42262.40634.38221-.3357.47155-.77653.45086-1.25608Zm-11.40819-145.4684c-2.81648,7.18477-5.14314,14.53712-6.91185,22.0578,3.13008-4.01897,3.67332-9.07691,5.28135-13.67848,1.05978-3.03259,2.13707-6.02756,3.50445-8.92662.10341-.82047-.06502-1.59886-.37167-2.35533-1.42652.46411-1.1266,1.94423-1.50228,2.90263Zm-17.74837,98.03639c1.66195,3.31867,3.66678,6.45133,5.98296,9.30727,3.32722,4.10256,5.6763,8.87923,9.1708,12.84465.14367-2.66062-1.84138-4.39915-3.08993-6.3031-3.83649-5.85028-8.41353-11.21224-11.49256-17.56634-.27801-.57375-.51397-1.2959-1.42449-1.06496-.17439,1.06944.40812,1.89367.85323,2.78249Zm8.0999-314.05306c-1.48727,2.08146-3.18988,4.04256-4.42471,6.26408-2.73166,4.9142-5.00581,10.03341-5.33416,15.78392,1.47761.01227,1.12721-1.3154,1.27579-2.0211,1.44481-6.86231,4.1847-13.0697,8.76363-18.4459.59269-.69581,1.40817-1.46688,1.26987-2.60248-.80531-.09728-1.16325.47958-1.55042,1.02147ZM42.9073,1.5653c.0086-.78364-.11845-1.61207-1.14425-1.56324-.93842.04467-.84644.90008-.84307,1.52858.01823,3.396.07605,6.79151.11995,10.18983.57142.17601,1.14313.34934,1.71484.52279.05283-3.55932.11341-7.11839.15252-10.67796Zm-5.99328,1034.89529c-.27885-.95439-.14846-2.18727-1.47053-2.55857-.27142.99311-.29857,2.13368.17052,2.91259,2.16706,3.59815,1.87914,7.76476,2.93521,11.60685.38371,1.39591-.72022,3.16718,1.04744,4.20767.02581-2.93796-.19208-5.86119-.6293-8.76867-.68025-2.46784-1.33548-4.94301-2.05333-7.39987Zm7.75561-856.18523c-.16506-1.44423-.55038-2.89176.15969-4.30182-.09499-1.03752-.18991-2.0748-.28483-3.11196-.25834-.16454-.51667-.32896-.77564-.49325-.98343,6.37467-.22037,12.64974,1.08182,18.89308.01271.06091.1255.10082.19157.1505.1176-3.72032.05046-7.4349-.37262-11.13654Zm-12.27833,364.38765c-2.86539-2.45552-5.94253-4.6843-8.11247-7.85913-.26792-.39206-.69647-.38254-1.11877-.2631-.26835.77485-.02386,1.47731.3076,2.16952,1.44187.28166,2.10066,1.55928,3.06292,2.43745,2.36878,2.16171,4.56197,4.52818,7.35714,6.1812.23236-1.29642-.70115-1.98442-1.49642-2.66595Zm-11.69492,396.68707c-.19473,2.73562-1.12077,5.31228-1.66093,7.95903-.49437,2.4225-1.61741,4.87011-.92901,7.47384,1.79542-5.37007,2.69363-10.94515,3.75208-16.48376-.6648.04373-1.11299.36045-1.16214,1.05089Zm14.05471-265.93615c.48255.09203.5219.44266.48581.83527.67406,1.44307.73007,3.08914,1.28767,4.52355,1.15805,2.97892.96727,6.37473,2.88766,9.09329.39773-.25682.53961-.6227.40293-1.06859-1.47703-4.8179-2.47126-9.75358-3.58066-14.65931-.39848.03094-.79866.06042-1.19886.0899-.09486.3953-.1897.79059-.28455,1.18589Zm-21.55331,305.55421c-.22503,4.52181-.6866,9.05884.31047,13.54278.19963.89782.00119,2.04664,1.09508,2.60013-1.14235-5.56745-.42868-11.22583-.82272-16.82996-.20248.22862-.57098.44894-.58283.68705Zm15.22347-299.87095c-.94682.84009-2.02139,1.67969-2.0741,3.1473,1.08124.05597,1.48524-.76655,2.06275-1.4706,2.00731-2.44722,4.30357-4.60807,6.827-6.52469.03609-.39261-.00326-.74323-.48581-.83527-2.52236,1.43227-4.20857,3.80118-6.32984,5.68325Zm31.57795-49.83249c1.1717-2.3694.75654-4.92617.8688-7.42105-1.05275.17375-1.32892,1.07915-1.3072,1.84338.06923,2.43415-1.34796,4.55858-1.31663,6.96136.25023-.04773.50148-.09374.75273-.1397.68715-.13079.91641-.63057,1.0023-1.24399Zm-10.60669-216.68089c-.18774-.06683-.3755-.13366-.56376-.20696-.75784,3.7213-.74701,7.38125.96079,10.89151.41101-3.58172-.01651-7.13225-.39703-10.68455Zm-2.28602-19.14831c-.20307-1.20127.20966-2.70879-.96947-3.6981-.83047,3.15591.2233,6.21538.61232,9.28578.14245,1.12437-.70412,2.77898,1.08423,3.45233-.21049-3.01871-.22512-6.07062-.72708-9.04001Zm-24.46963,140.39971c.46-.81482-.19568-1.59376-.08047-2.39894-.12396-.32841-.24792-.65675-.37211-.98583-1.35423-.20024-1.64272-1.3926-2.23366-2.33669-.90392-1.44411-1.26235-3.30799-3.05283-4.09242.97769,3.8176,3.37478,6.80482,5.73907,9.81388Zm2.11753,95.78597c-.46459-.56222-.92917-1.12443-1.39449-1.68634-1.50062.10815-2.29046-1.22922-3.4738-1.69977-1.5945-.63411-2.5891-2.73485-4.74509-1.98539.20465.23973.3744.52517.61847.71498,2.76074,2.14682,6.19958,3.26039,8.74662,5.73891.21352-.00769.42639-.01758.63927-.02746-.13032-.35166-.26066-.70332-.39098-1.05492Zm18.59473-470.43077c-.71143.87848-.39163,1.8955-.2504,2.82292.42218,2.77263.74627,5.54575.67014,8.355.25897.1643.5173.32871.77562.49325.31026-3.96127-.17943-7.84051-1.19536-11.67117Zm-3.29852,4.74967c.21233-.11156.59827-.20543.61169-.33726.36186-3.56188.81062-7.12987-.16411-10.67173-.90212,3.63903-.5059,7.33078-.44758,11.00899Zm11.40712,630.24873c-.36069,1.92992.25006,5.70367,1.15483,7.14738.59246-2.5376-.65509-4.77829-1.15483-7.14738ZM30.37241,202.31714c2.49109-2.02647,2.87774-4.98512,3.47447-7.85089-2.0593,2.21786-2.73947,5.04628-3.47447,7.85089Zm13.19654-102.01869c-.7505,2.4023-.78784,4.81179-.01118,7.22276.41509-2.40498.33607-4.8107.01118-7.22276Zm-7.21463,87.00754c.95902.26182,1.07259-1.03838,1.89848-1.02532-.11508-1.44716.75164-2.97989-.37155-4.34137-1.34643,1.55031-1.31791,3.49194-1.52693,5.36669Zm14.1977,606.4791c.86398-1.51591.54999-3.17257.56501-4.79025-.53263-.63948.16128-1.83859-1.00065-2.19028-.17205,2.34612-.76339,4.71842.43564,6.98053Zm-26.64261,138.51685c1.63434-.96978,2.57969-4.17247,1.75646-5.95023-1.23999,1.78994-1.42546,3.89133-1.75646,5.95023Zm24.12356-526.45508c-1.19803,2.21493-.62538,4.21699.73448,6.12463.36623-2.11496.15646-4.16084-.73448-6.12463Zm-26.10131,533.47549c1.56241-1.23496,2.48212-4.38211,1.74204-5.96101-1.23898,1.7944-1.52268,3.86811-1.74204,5.96101Zm13.19061-526.74971c1.43171-1.39834.53522-3.28932,1.025-4.88973-1.83946,1.31418-.98646,3.19313-1.025,4.88973Zm-21.78696,86.86637c1.38273-1.73749.54167-3.68999.53455-5.56211-1.29544,1.7467-.91919,3.65367-.53455,5.56211Zm25.22979-319.97891c1.46857-1.66614,1.74505-3.51245.83793-5.53794-1.03208,1.73206-1.04976,3.61766-.83793,5.53794ZM14.03392,492.82548c.91762-1.55147,1.19533-3.2043.78066-4.96608-.91464,1.5522-1.18188,3.20619-.78066,4.96608Zm-.14909-248.92996c-.00241-1.5265.63195-3.12393-.49879-4.5269-.36357,1.56703-.8349,3.1459.49879,4.5269Zm32.78877,131.99601c-1.45299,1.45034-.63616,3.10983-.43216,4.71311,1.17675-1.47609.74011-3.10006.43216-4.71311Zm-6.39125,708.07387c1.02844-1.59861,1.18325-3.17449-.11987-4.71332-.37027,1.58174-.47693,3.15676.11987,4.71332ZM43.50401,48.2987c-.588,1.60194-.58379,1.81164.06613,3.28126.32777-1.09904.4314-2.19357-.06613-3.28126Zm.94299,1003.37114c-.95179,1.29047-.53899,2.68784-.31915,4.07004,1.03397-1.28429.57491-2.68534.31915-4.07004Zm-29.65016-425.63257c-.59218-1.7298-1.77382-2.51978-3.61067-2.26431.97679,1.11613,2.06885,2.0485,3.61067,2.26431Zm.74339,345.28157c1.68661-.73606.92886-1.8482.44818-2.91773-.66745.89276-1.05783,1.82812-.44818,2.91773Zm-2.15165-738.35885c1.01337-.9096.53048-2.0283.43001-3.09378-1.19794.88458-.90701,1.97581-.43001,3.09378Zm26.17311-62.16261c1.51869-.8559,1.05418-1.85583.20704-2.88322-.63316.91986-.36223,1.90477-.20704,2.88322Zm-25.29976,343.23148c-.06618-1.07231,1.0554-2.52796-.95736-2.97446.14883,1.04601-.70344,2.41438.95736,2.97446Zm11.80174-305.13358c1.1608-.66658,1.89943-1.58583,1.79485-3.00821-1.18012.65511-1.87996,1.59693-1.79485,3.00821Zm15.90328,994.11463c.52477-.02917,1.04195-.47077.4812-1.15947-.38551.01616-.77244.03332-1.15936.05049-.38173.74423.16276,1.13764.67816,1.10898Zm4.25473-838.36243c-.2603.98766-.80324,2.01573.39808,2.79454.41767-1.00976.65895-1.99449-.39808-2.79454Zm-12.41941,66.20322c-1.57074.34165-1.53868,1.4432-1.26023,2.66082,1.05937-.02185.63073-1.31912,1.378-1.60792-.03931-.35081-.07862-.70161-.11777-1.0529Zm-25.54847,191.21601c-.03841-1.40151-.51055-2.27462-2.13043-1.74744.45757.89014,1.07741,1.58241,2.13043,1.74744ZM27.90065,205.83191c1.36421-.00366,1.51901-.90143,1.45079-1.96409-1.22754.10473-1.35858,1.0197-1.45079,1.96409Zm-12.81755,280.47089c.67587-.5591.46006-1.23832.2557-1.916-1.01456.51431-.867,1.18369-.2557,1.916Zm34.62017-72.93669c-.138-.39371-.46082-.31553-.71462-.03174-.05341.34373-.10692.68989-.1599,1.04247.18826.0733.37602.14013.56376.20696.6187-.27079.45838-.79645.31076-1.21769Zm-24.88362-119.39924c.25345-.85462-.11618-1.4717-.75866-1.98436-.53339.96179-.00889,1.51912.75866,1.98436Zm13.70937,64.42008c-.34162.00055-.68275.00116-1.02388.00195.13366.514.26733,1.02776.40095,1.54127.17246-.00031.34499-.00031.51751-.00031.62788-.4736.49418-.9995.10543-1.54292Zm-22.25426,608.02852c.9252-.38276.73134-1.04888.43918-1.73987-.7946.41629-.90383,1.00545-.43918,1.73987Zm-1.98601,10.98839c.89657-.38691.74443-1.03752.43292-1.72815-.78089.41644-.8866,1.00191-.43292,1.72815Zm5.17386-507.43774c.71802-.40573.58239-1.01183.38127-1.63325-.81074.38486-.90041.9378-.38127,1.63325Zm15.0319-51.26592c.56848-.26933.47904-.64302.16002-1.05181-.68518.25371-.55409.63094-.16002,1.05181Zm6.02629,683.56486c.48557-.41071.59443-.81527-.02909-1.20206-.6941.41672-.59676.8143.02909,1.20206Zm-9.48582-665.87763c.46233.00195.92462.00323,1.38709.00458-.02497-.41086.03292-.86224-.49936-1.02629-.51092.15337-.97574.34684-.88773,1.02172Zm15.00462-45.52822c.54794-.34006.17812-.70204.02445-1.05834-.18585-.00085-.37173-.00232-.55762-.00378.02395.431-.03364.90301.53316,1.06212ZM13.79789,228.4519c-.04703.3552.24005.46127.57304.291.0373-.22789.07536-.45639.11344-.68501-.24123.12975-.66544.23509-.68647.39402Zm.46775,506.4062c.04538.31461.20455.55984.58573.5328.18448-.3671.18573-.69227-.21584-.92321-.30418-.0415-.40433.15136-.36989.39041Zm.58588,239.98211c.48396-.15841.6662-.48523.54593-.98049-.63438.07455-1.10336.24129-.54593.98049Zm.49878-236.4184c.20217-.39707.19868-.74195-.24921-.97289-.65978.51425-.37607.78699.24921.97289Zm.96762,3.99886c.2165-.39127.20971-.73023-.2293-.96655-.49556.45743-.48883.79584.2293.96655Zm-.2835-260.07566c.49551-.21452.59563-.49655.1475-.8714-.51251.21184-.66335.48495-.1475.8714Zm.79372,262.07412c.19102-.38932.1995-.73383-.24155-.96575-.72392.52273-.35588.77247.24155.96575Zm1.02074,4.00204c.20942-.48916.13244-.8753-.39739-1.09733-.53313.60665-.18944.89563.39739,1.09733Zm-.41225-271.96222c.55272-.25773.59961-.67287.36354-1.1757-.58308.24907-.90343.57924-.36354,1.1757Zm1.41803,275.46691c.2098-.4916.13553-.88495-.38978-1.1215-.51421.59755-.23644.9198.38978,1.1215Zm-.55151-278.48855c.63715-.1928.73001-.60128.45515-1.15489-.60437.20641-.85841.5508-.45515,1.15489Zm7.93722-23.51507c.71473-.17278.78202-.61562.49998-1.20371-.60121.2205-.85837.58382-.49998,1.20371Zm-5.77073,17.03524c.50781-.24724.57905-.63435.35469-1.11564-.61967.21245-.88493.53744-.35469,1.11564Zm-9.68482,156.55421c-.06046-.26793-.03518-.65779-.20236-.77643-.27967-.19859-.54087.01092-.623.35923.12161.44205.42038.53384.82536.41721Zm18.47367-182.06297c.70519-.20342.76333-.65321.46904-1.23685-.60672.24144-.87139.61244-.46904,1.23685Zm-15.82708,270.99189c.59807-.33237.61058-.77351.23723-1.2861-.57714.33683-.82192.73487-.23723,1.2861Zm9.99021-119.50983c-.23012.01013-.46024.02026-.68983.02954-.13138.14599-.26326.29283-.39449.43912.2035.15868.40638.31785.60925.47702.42915-.17913.52579-.52535.47507-.94567Zm-.13964-.89148c-.73372-.0246-.8519.32194-.55019.92102.22959-.00928.45971-.01941.68983-.02954-.04717-.29667-.09435-.59328-.13964-.89148Zm.43721,174.47305c.30676-.53341.27042-.9541-.38671-1.16914-.47054.58751-.22292.93771.38671,1.16914Zm10.80318-573.62522c.69532-.04968.80307-.52291.78313-1.08806-.78673-.01623-1.08629.31834-.78313,1.08806Zm.50994,699.6546c.31361-.16271.27453-.2743-.05228-.34202-.29018.16027-.24803.2696.05228.34202Zm-10.26425-122.54654c.24895-.54696.18144-.96709-.46474-1.15394-.42671.61858-.13795.94909.46474,1.15394Zm5.80398-332.60858c.10529-.16948.2105-.33945.31573-.50942-.32559.0329-.48442.1693-.31573.50942Zm30.4442,180.56814c-.01998-6.02991-.03997-12.05988-.05985-18.08985-.16622-2.59155.23461-5.237-.73689-7.7536-3.07583-1.51363-5.46729-3.99978-8.30746-5.84047-2.98273-1.93303-4.73179-5.23779-7.87994-6.9671-.66297.43686-.60876,1.12053-.6246,1.78503-.12628,5.29852-.19349,10.59618-.3822,15.89604-.55525,15.59399.18994,31.19678.39732,46.79638.00772.58046-.03658,1.17417.45705,1.61634.49083-.4371,1.07976-.80256,1.4567-1.32193,3.46027-4.76724,8.14495-8.13944,12.90781-11.42723-.03133-2.40278,1.38585-4.52721,1.31663-6.96136-.02172-.76423.25445-1.66962,1.3072-1.84338.04941-1.96294.09882-3.92593.14823-5.88887Zm-17.38025,50.66788c-.06134.57705-.18443,1.15422-.17115,1.72815.18397,7.94854-.21034,15.86888-.96457,23.78195-.13885,1.45693-.64028,1.92278-1.97697,1.72919-.4656,1.93456.37756,3.77226.41532,5.68716.13455,6.82514-.83513,13.61055-.85278,20.38937-.01742,6.68788-1.28461,13.08898-2.3824,19.57613-.78586,4.6439-1.62366,9.28798-2.15239,13.96435-.79079,6.99429-1.35281,14.01513-1.95348,21.02968-.09481,1.10728-.5128,2.32.39397,3.33723.61264-.51693.91634-1.21967.90117-1.97856-.1162-5.8163.58472-11.54707,1.4934-17.28299.82642-5.21667,1.31879-10.48663,1.94275-15.73497.94514-7.95,3.29099-15.73284,2.65165-23.88156-.15006-1.91283.46407-3.88553.72662-5.8307.92639.96612.64422,1.97301.76545,2.92551.10448.82093-.47263,1.92223.84923,2.30294-.00215-1.91082.21905-3.85385-.04653-5.72793-1.2704-8.96519-.8177-17.7861,1.39877-26.58651,1.14801-4.55797,2.71758-9.03647,3.15705-13.76252-1.27065-1.98326-2.39886-4.07192-4.19513-5.66592Zm-19.74697-153.20362c.17163-2.05509.4409-4.10701.50088-6.16515.07495-2.57196.14623-5.20892,1.06028-7.56496,1.60545-4.1385,1.71429-8.55817,2.66932-12.80324.76362-3.39423,1.56331-6.90515,1.81382-10.44726-1.65825.8183-1.01926,2.59857-1.57511,3.88443-2.57068,5.94715-2.76484,12.50894-4.69316,18.6727-1.5314,4.8951-.6395,10.22853-.72054,15.37123.57211-.05944.89538-.35965.94451-.94775Zm.88839,114.73746c-.43175-4.25373-1.31934-8.44917-1.38845-12.75404-.07281-4.53734-.37335-9.07108-.57324-13.60591-.40996.14867-.8027.38541-.80073.84821.02159,5.06922-.36859,10.15181.24771,15.20297.40982,3.35871,1.03636,6.69112,1.0972,10.08712.46532.56191.9299,1.12413,1.39449,1.68634.01034-.48849.07199-.98217.02302-1.46468Zm24.39273-384.87632c-.28974-1.79785.67177-3.82615-.86393-5.41222-1.58067,1.47267-.53467,3.35645-.79137,5.03639,1.37943.69929.77727,2.01304.98181,3.09011.40978,2.15768-.19662,4.54179,1.40668,6.43741.33355-3.09408-.24832-6.14312-.73318-9.1517Zm-25.76467,286.07298c.02348-2.64813.05615-5.29797-.01895-7.94414-.02866-1.01018.49402-2.17459-.56027-3.01053-.67903.7884-.36505,1.74322-.41577,2.62762-.18008,3.13815.26461,6.29191-.2262,9.42432.12419.32908.24815.65742.37211.98583,1.09302-.36173.84212-1.29825.84908-2.08311Zm13.52193-311.42812c-1.01682,3.43189-.18179,7.02892-.93374,10.48449,2.26181-3.32093,1.55708-6.90625.93374-10.48449Zm9.04345-3.00394c.22982.00195.45963.00391.69038.00561.67367-3.23598-.01069-6.37467-.68083-9.51447-1.17363,1.6399-.21683,3.34669-.15792,5.02528l.14837,4.48357Zm-9.85859,112.0164c.63471,2.41664,1.28084,4.83151,1.90024,7.25327.15935.623.12625,1.3345.95202,1.52962-.06566-3.21462-.56396-6.2888-2.85225-8.78289Zm12.84893,121.44395c.25872-.03363.51746-.06719.77495-.10131.15548-2.1232.35228-4.24555.04898-6.37187-1.23329,2.03568-1.85237,4.14955-.82394,6.47318Zm-26.13572,151.99026c.86195-2.56745,1.17395-5.12128-.19208-7.6313-.14546-.05566-.27788-.03149-.39556.07348.70865,2.47932-.37823,5.09809.58764,7.55782Zm8.05961-314.46404c-.5992,2.46565-1.12068,4.94081-.91357,7.50472,1.41754-2.36604,1.9438-4.8406.91357-7.50472Zm1.95561-21.00157c-.6093,2.46644-.73148,4.98915-.86535,7.51058,1.46411-1.51534,1.88948-5.21033.86535-7.51058Zm.9922-10.49267c-.48389,2.47334-1.09642,4.93166-.88615,7.48751,1.27388-1.24411,1.7762-5.49204.88615-7.48751Zm-3.98979,43.49175c-.82626,1.96721-.35756,4.00033-.3046,6.01233,1.61803-1.92742,1.05455-3.96511.3046-6.01233Zm5.54817-61.98532c-.92698,1.77832-.33418,3.66466-.38984,5.50498,1.67051-1.72595,1.0259-3.61571.38984-5.50498Zm12.71339-.02417c.54665-1.69312.72891-3.36683-.26306-4.97878-.55508,1.69361-.8323,3.37257.26306,4.97878Zm-10.27696-29.97787c-.8385,1.61475-.29061,3.32667-.34835,4.99623,1.71609-1.55397,1.08602-3.27125.34835-4.99623Zm.74258,152.93478c-.27502,1.71546-.23866,3.35328,1.16489,4.64823.29634-1.72083-.13908-3.25825-1.16489-4.64823Zm-2.72457-128.93024c-.80409,1.26236-.31111,2.64874-.37944,3.98165,1.70389-1.17704,1.08518-2.57501.37944-3.98165Zm4.03522,144.49043c-.25644.02936-.51286.05871-.76824.08856-.04644.81464-.2902,1.64179.16088,2.42305,1.77298-.4573,1.30358-1.45699.60736-2.5116Zm8.59995,78.00335c.20002-.00177.40006-.00354.60114-.00519.56646-1.32211,1.07494-2.65326.65412-4.13081-.25749.03412-.51623.06768-.77495.10125-.1601,1.34494-.3202,2.68987-.4803,4.03475Zm-8.80912-81.13045c-1.23855.88891-.65532,2.09482-.55906,3.21565.25538-.02984.5118-.0592.76824-.08856-.03426-1.04485.28717-2.11356-.20918-3.1271Zm.299,319.10013c-.0258.69813-.25996,1.4446.45466,1.97215.69669-.85278.85718-1.58204-.45466-1.97215Zm-2.62172-477.96845c-.61685.59029-.40882,1.31314-.32261,2.01658,1.23417-.49215,1.14051-1.19645.32261-2.01658Zm-5.4679,61.49609c-.67523.56399-.44558,1.29996-.37988,2.00474,1.2767-.45041,1.12512-1.1713.37988-2.00474Zm2.48073-25.48581c-.51868.40531-.4218.9519-.34122,1.49477,1.00625-.2946,1.22243-.76935.34122-1.49477Zm-2.993,31.98499c-.53458.41055-.44377.96484-.34801,1.52022,1.0307-.29753,1.21042-.78962.34801-1.52022Zm15.03654-64.50919c.08572-.32554.17122-.65108.25581-.97674-.23075-.00171-.46056-.00366-.69038-.00561-.73686.71748-.27618.90509.43457.98235Zm1.21155,10.47949c.52584-.57589.14382-.86139-.35524-1.10942-.319.5101-.28412.90667.35524,1.10942Zm-13.99093,92.54536c-.16823.39499-.10108.71376.30147.9223.72011-.57393.28647-.77265-.30147-.9223Zm5.39489,61.53338c-.01718.28831-.03414.57747-.05112.86664.50659-.25963.52337-.54824.05112-.86664Zm.10541-2.50922c-.15087.11413-.17112.24858-.06105.40274.22673-.10253.2689-.2332.06105-.40274Zm9.739,74.92001c.07278-.15355.14527-.30753.2167-.46152-.20109.00165-.40113.00342-.60115.00519.12803.15203.2561.30399.38446.45633Zm-3.56866,433.24019c-.34578-1.28174-.23427-3.03012-1.81508-3.81891-.24704,1.04582-.57401,2.05412-.57162,3.16903.03907,18.22522.03917,36.45053.06734,54.67577.00121.77726-.32058,1.7125.67288,2.212.26013-.86398.68846-1.71558.75591-2.59488.37108-4.83581.44415-9.68297.83492-14.5302.83134-10.3126,1.76871-20.63282,2.35337-30.97118.16928-2.96622-1.56324-5.4193-2.29772-8.14164Zm3.74792-118.81203c-.11412-2.43309-.22879-4.86602-.34348-7.29892-.25741-.03811-.51481-.07623-.77225-.11413-.6201.50228-.52981,1.2172-.43863,1.84951.53145,3.68553.74209,7.39981,1.11267,11.09468.14565,1.45226-.47536,3.36744,1.15361,4.53667.32151-1.3269.11705-2.6632.06792-3.99685-.51425-.45001-.5637-.93826-.12161-1.46663.26992-1.20698-.22376-2.35033-.29624-3.52893-.45769-.24479-.50671-.62743-.36199-1.07539Zm-3.45658-23.39661c-.72161,3.80204,1.09486,7.33493,1.21123,11.05617.015.47952.45739.86206,1.02311.92547-.35382-1.52241-.09545-3.14083-.40192-4.60142-.55012-2.62195.02056-5.4337-1.35049-7.898-.16619.17156-.44473.32169-.48192.51779Zm-1.89041-19.50577c.06564,2.17581.13269,4.35211.19975,6.52841.56056.36741.52132.8949.38513,1.44753.03049.5165.0623,1.0335.09409,1.55049.16724-.00781.33448-.01562.50161-.02307.32649-4.12953.05274-8.23733-.47315-12.33385-.0113-.08807-.27767-.14342-.42505-.21397-.09367,1.015-.1873,2.02995-.28238,3.04446Zm2.25999,250.97474c-.92631,3.25844.25657,6.45413.31547,9.68358.00165.0906.42723.17348.65517.26048.01995-1.98472.03989-3.97.05983-5.95527-.64173-.46792-.64359-.971-.08274-1.50496-.06117-.79093-.12227-1.58186-.18336-2.37282-.25485-.03708-.50968-.07415-.76437-.11102Zm-8.11705-132.12069c-1.61543,2.97178-1.04124,6.01255-.28771,9.05902.80536-2.99747.30321-6.03635.28771-9.05902Zm.86921,16.92767c-.0301-.14721-.40503-.22389-.62086-.33338.02017,3.05606.22931,6.06329,2.23548,8.60315-.53028-2.7582-1.05197-5.51817-1.61462-8.26977Zm8.08903,133.68015c.10596.36185.21191.72367.31883,1.08553,1.12039-1.62949,1.1208-6.96591.00165-8.66632-.54164,2.50855.01347,5.06346-.32048,7.5808Zm-.9018,6.97116c.9938-.77012-.05271-2.21923.98896-2.9733.07743-.97076.15504-1.94151.23166-2.91233-.10692-.36185-.21287-.72367-.31881-1.08553-2.09686,2.09128-1.44472,4.53828-.90181,6.97116Zm-8.07986-27.95982c-.5392,2.46336-.94993,4.94176-.85005,7.47826,1.51996-1.47887,1.93352-5.12089.85005-7.47826Zm7.54117,30.99476c.06459.54653.11072,1.08757-.43292,1.45223-.04851.67393-.09696,1.34848-.1454,2.02302.06811.51745.13621,1.03487.20457,1.55247,1.28625-1.52098,1.70924-3.18331.8279-5.05912-.15441-.03338-.30579-.02292-.45416.0314Zm-.45641-267.47382c-.54709,1.21952-1.02341,2.43226.31796,3.47876.18523-.01111.37044-.02222.55496-.03357-.03516-1.10911-.06965-2.21792-.10415-3.32673-.25618-.03955-.51237-.0791-.76877-.11846Zm-1.03169,275.44766c.82597-.41257.21778-1.54475.99392-1.98219.04006-.32124.08038-.6425.12044-.96392-.06836-.5176-.13646-1.03502-.20455-1.55247-1.84852,1.1869-1.54139,2.80992-.90981,4.49858Zm.02426-292.4442c-.18024.01446-.36061.02911-.54048.04303-.47046,1.69269-.98507,3.38929.34365,4.95937.09507-1.01452.1887-2.02946.28235-3.04446-.02854-.65254-.0571-1.30514-.08552-1.95793Zm2.09277,283.48029c1.41435-1.47289,1.73933-3.14111.89873-5.01817-1.04167.75407.00484,2.20318-.98896,2.9733.03014.68159.06027,1.36319.09023,2.04487Zm-8.40901-148.02396c-.05643,1.34964-.63142,2.75844.45062,3.97891.44932-1.39394,1.16571-2.81804-.45062-3.97891Zm6.95726,10.18535c1.55448-1.09776.74879-2.83992,1.16084-4.24894-1.45499,1.12513-1.30988,2.68716-1.16084,4.24894Zm-7.58637,130.8359c-.13545,1.42422.30296,2.71645.91391,3.96896.59645-1.53044.48398-2.89762-.91391-3.96896Zm7.06588,17.50452c1.31808-.92338,1.70152-2.07256.84915-3.52009-.77614.43744-.16796,1.56962-.99392,1.98219.04836.51257.09672,1.02514.14477,1.5379Zm-6.0266-9.5154c.41815,1.03438-.10015,2.47132,1.31994,3.07589.08849-1.25196.05478-2.45149-1.31994-3.07589Zm8.26084-31.13163c-.48779.83814-.25096,1.7554-.29161,2.64206.25468.03686.50952.07394.76437.11102.16594-.97305.66233-2.00267-.47275-2.75307Zm-1.54844-104.81869c-.05931-.68709,1.13593-1.53346-.25972-2.05109-.72345.78611-.87333,1.49968.25972,2.05109Zm3.35146-110.10576c-.04142.69386-.08241,1.38754-.12337,2.08109.25744.0379.51484.07601.77225.11413.24382-.86768.58337-1.76367-.64889-2.19522Zm-3.02329,209.51496c.08785.72917-1.33746,1.93907.65667,2.06254.41269-.69813-.15847-1.35855-.07823-2.04414-.19305-.00616-.38609-.01233-.57844-.0184Zm-5.64175-7.45236c-.66362.56386-.41426,1.30545-.38891,2.00349,1.28343-.44394,1.14722-1.16325.38891-2.00349Zm4.89528-227.49489c.13621-.55263.17545-1.08012-.3851-1.44753-.67296.69484-.53542,1.17466.3851,1.44753Zm-.46895,281.49658c-1.00129.24196-1.07821.74398-.40806,1.45614.17906.00195.35797.00343.5369.00493-.04308-.48687-.08618-.97373-.12884-1.46106Zm1.11187-8.55231c.54364-.36466.49751-.9057.43292-1.45223-.98636.23262-1.14727.71156-.43292,1.45223Zm1.29469-163.38076c.21822-.45538.14175-.82221-.32095-1.07274-.66002.58568-.25384.85422.32095,1.07274Zm-1.16081-106.60772c-.05286.35416-.10521.70839-.15737,1.06243.25641.03936.5126.07891.76877.11846.31094-.65993.061-1.02953-.6114-1.18089Zm.29389,5.56052c-.57218.63344-.23503.87012.42191.96819.03876-.32023.07701-.64095.11525-.96172-.17888-.0022-.35774-.00439-.53716-.00647Zm.42166-1.0529c-.18452.01135-.36973.02246-.55388.03363.04459.33988.08813.67964.1322,1.01928.17943.00208.35829.00427.53716.00647.56213-.4191.45249-.76459-.11548-1.05937Zm-.48075,226.38578c-.08915.36619-.17679.73213-.26513,1.09807.19235.00607.38539.01224.57844.0184.52035-.54659.2069-.86029-.31331-1.11647Zm-.12219,4.68696c.06003.36258.39236.41895.71541.41623-.0484-.32209-.09704-.64473-.14567-.96734-.32958.04184-.6336.16539-.56974.55111Zm-5.87597-5.15909c-.59327.12063-.91559.45224-.8452,1.08928.7168-.02597,1.01284-.3779.8452-1.08928Zm5.50073-230.90359c.02747-.3148.05446-.63027.08155-.94604-.16713.00745-.33437.01526-.50161.02307-.60945.64833-.21596.84039.42006.92297Zm.22889,227.90438c-.10074-.31782-.20117-.63606-.30158-.95431-.23883.42545-.23145.77296.30158.95431Zm1.87981,15.1048c-.56085.53396-.55899,1.03704.08274,1.50496.55928-.53396.53054-1.03554-.08274-1.50496Zm2.79749-205.95188c-.44209.52837-.39263,1.01662.12161,1.46663.68614-.54958.73055-1.04549-.12161-1.46663Zm-.65824-4.60432c-.14471.44797-.09569.8306.362,1.07539.75222-.6519.21404-.86999-.362-1.07539Zm5.8144-464.4965c.37924-3.91531-.25976-7.78424-.5506-11.65561-.45963-6.11828-.5319-12.31511-2.5899-18.21527-.21982.22185-.65726.48532-.62436.66029.60378,3.21053.03429,6.49387.49879,9.6787.99211,6.8025,1.82231,13.6064,1.91717,20.48849.01062.77045-.3545,1.72461.70495,2.18143.50704-.98724.53925-2.05704.64394-3.13802Zm-4.52708-45.257c-.01242-.05938-.12515-.09783-.19211-.14611-.87782.4501-.67953,1.28726-.61224,1.98375.29386,3.04019.65833,6.07361.99427,9.10977.06612.59737.43239.85272.99133.9024.07801-3.99697-.36432-7.94237-1.18125-11.84981Zm-5.1819-63.77126c-.07304,1.4529-.95296,3.02237.61118,4.23823.01777-1.44472.86599-3.00894-.61118-4.23823Zm5.50424,275.81009c.51902,3.91647,1.77084,7.64942,3.22289,11.27722.47098,1.17674-.09656,3.27229,2.11169,3.47327-1.23198-5.75393-2.36052-11.53776-4.83351-16.93777-.9976.5386-.60578,1.39712-.50106,2.18728Zm11.23265,144.78887c-.00464-4.99892-.00996-9.99783-.01367-14.99675-.00052-.69154-.02194-1.36581-.91684-1.51314.01988,6.02997.03986,12.05994.05985,18.08985.84805-.21916.8713-.89319.87066-1.57997Z" fill="#e5e5e5"/>
</svg>